<svg width="180" height="43" viewBox="0 0 180 43" fill="none" xmlns="http://www.w3.org/2000/svg">
<g clip-path="url(#clip0)">
<path d="M18.2687 25.5345L15.2746 23.291L9.15796 18.706L15.2746 23.2867L18.2687 25.5345Z" fill="white"/>
<path d="M9.10223 30.5537V34.3213L6.32194 32.2396L6.19362 32.1417L5.53063 31.6436L2.99415 29.7406L0 27.4971V18.7316L2.99415 20.9751V25.9688L6.07386 28.2804L9.10223 30.5537Z" fill="#FBB307"/>
<path d="M15.2745 6.71357V2.98002H2.99415V14.0785L6.61708 16.7946V16.7988L9.15783 18.706L15.2745 23.291L18.2686 25.5345V40.6347H0V31.9927L2.99415 34.2362V37.6547H15.2745V27.0203L2.99415 17.812L0 15.5642V0H18.2686V8.96136L15.2745 6.71357Z" fill="#FBB307"/>
<path d="M18.2687 13.4527V22.3715L15.2745 20.1237V14.981L12.5712 12.9546L9.54712 10.6855V6.91367L15.2745 11.2092L18.2687 13.4527Z" fill="#FBB307"/>
<path d="M30.0828 35.6666H32.9743V36.2711H30.78V37.825H32.5679V38.4295H30.78V40.0217H33.094V40.6262H30.0999L30.0828 35.6666Z" fill="#3B3B3B"/>
<path d="M36.3019 35.5857C36.639 35.5789 36.9741 35.6395 37.2872 35.7641C37.6003 35.8887 37.885 36.0747 38.1244 36.311C38.3638 36.5473 38.5531 36.8291 38.6809 37.1397C38.8087 37.4502 38.8724 37.7832 38.8683 38.1188C38.8682 38.7159 38.6612 39.2947 38.2823 39.7578L38.8726 40.3154L38.4663 40.7412L37.8846 40.1622C37.4367 40.5175 36.8789 40.7071 36.3062 40.6986C35.9659 40.6986 35.629 40.6313 35.3151 40.5006C35.0012 40.3698 34.7166 40.1782 34.4777 39.937C34.2389 39.6957 34.0507 39.4096 33.924 39.0952C33.7973 38.7809 33.7347 38.4446 33.7398 38.106C33.7369 37.7717 33.8014 37.4402 33.9295 37.1312C34.0576 36.8221 34.2467 36.5418 34.4856 36.3068C34.7245 36.0718 35.0083 35.8869 35.3203 35.763C35.6323 35.6392 35.9661 35.5789 36.3019 35.5857ZM36.3019 40.0728C36.6916 40.07 37.0698 39.9416 37.3798 39.7067L36.7938 39.1362L37.2216 38.7105L37.7947 39.2852C38.036 38.947 38.1646 38.542 38.1626 38.1273C38.1626 37.6418 37.9688 37.1761 37.6239 36.8328C37.2789 36.4895 36.8111 36.2967 36.3233 36.2967C35.8355 36.2967 35.3677 36.4895 35.0228 36.8328C34.6778 37.1761 34.4841 37.6418 34.4841 38.1273C34.4738 38.3739 34.5128 38.6201 34.5988 38.8517C34.6849 39.0832 34.8163 39.2954 34.9854 39.476C35.1545 39.6566 35.358 39.8019 35.584 39.9037C35.81 40.0054 36.054 40.0614 36.3019 40.0685V40.0728Z" fill="#3B3B3B"/>
<path d="M39.865 35.6666H40.5665V38.8723C40.5556 39.0368 40.581 39.2017 40.6408 39.3554C40.7006 39.5092 40.7935 39.6481 40.9128 39.7624C41.0322 39.8767 41.1752 39.9637 41.3318 40.0174C41.4885 40.071 41.655 40.0899 41.8197 40.0728C41.9879 40.0926 42.1584 40.0753 42.319 40.022C42.4797 39.9687 42.6266 39.8808 42.7491 39.7645C42.8717 39.6482 42.967 39.5064 43.0281 39.3492C43.0893 39.192 43.1148 39.0234 43.103 38.8552V35.6666H43.8044V38.8723C43.8044 39.9749 43.0046 40.7114 41.8411 40.7114C40.6777 40.7114 39.8778 39.9749 39.8778 38.8723L39.865 35.6666Z" fill="#3B3B3B"/>
<path d="M45.0535 35.6666H45.7507V40.6262H45.0535V35.6666Z" fill="#3B3B3B"/>
<path d="M47.0853 35.6666H48.9032C49.1113 35.6556 49.3195 35.6883 49.5141 35.7624C49.7088 35.8366 49.8856 35.9506 50.0332 36.097C50.1808 36.2435 50.2958 36.4192 50.3708 36.6127C50.4458 36.8063 50.4792 37.0133 50.4687 37.2205C50.479 37.4284 50.4456 37.6362 50.3708 37.8305C50.2959 38.0249 50.1812 38.2016 50.0339 38.3494C49.8866 38.4972 49.71 38.6128 49.5153 38.6889C49.3207 38.765 49.1122 38.7999 48.9032 38.7914H47.7825V40.622H47.0811L47.0853 35.6666ZM48.7963 38.1911C48.9263 38.2009 49.0569 38.1824 49.179 38.1369C49.3011 38.0914 49.4117 38.02 49.5033 37.9276C49.5949 37.8353 49.6652 37.7242 49.7093 37.6021C49.7534 37.48 49.7702 37.3497 49.7587 37.2205C49.7699 37.0927 49.7527 36.9639 49.7084 36.8434C49.6642 36.7229 49.5939 36.6135 49.5025 36.523C49.4112 36.4324 49.3009 36.363 49.1796 36.3195C49.0583 36.2759 48.9289 36.2594 48.8005 36.2711H47.7868V38.1911H48.7963Z" fill="#3B3B3B"/>
<path d="M53.6423 39.2171H51.7646L51.2727 40.6433H50.5498L52.3249 35.6666H53.0606L54.8913 40.6262H54.1642L53.6423 39.2171ZM52.7056 36.3691C52.7056 36.3691 52.5901 36.8161 52.5046 37.0672L51.9485 38.6424H53.4584L52.9066 37.0672C52.8254 36.8161 52.7184 36.3691 52.7184 36.3691H52.7056Z" fill="#3B3B3B"/>
<path d="M55.8323 35.6666H56.5638L57.7058 38.3529C57.8213 38.6254 57.9539 39.017 57.9539 39.017C57.9539 39.017 58.0908 38.6254 58.202 38.3529L59.344 35.6666H60.0798L60.4818 40.6262H59.7889L59.5451 37.5015C59.5451 37.1992 59.5451 36.7692 59.5451 36.7692C59.5451 36.7692 59.3954 37.229 59.2756 37.5015L58.279 39.7365H57.6588L56.6621 37.5142C56.5509 37.246 56.3969 36.7692 56.3969 36.7692C56.3969 36.7692 56.3969 37.1949 56.3969 37.5142L56.1574 40.639H55.4602L55.8323 35.6666Z" fill="#3B3B3B"/>
<path d="M61.6753 35.6666H64.5668V36.2711H62.3725V37.825H64.1562V38.4295H62.3725V40.0217H64.6866V40.6262H61.6924L61.6753 35.6666Z" fill="#3B3B3B"/>
<path d="M65.696 35.6666H66.389L68.6047 38.8936C68.7598 39.1243 68.9026 39.363 69.0324 39.6088C69.0324 39.6088 68.9811 39.183 68.9811 38.8936V35.6666H69.6783V40.6262H69.0067L66.7868 37.4121C66.6028 37.1354 66.359 36.6883 66.359 36.6883C66.359 36.6883 66.4104 37.1141 66.4104 37.4121V40.6262H65.7089L65.696 35.6666Z" fill="#3B3B3B"/>
<path d="M72.082 36.2711H70.3711V35.6666H74.4859V36.2711H72.775V40.6262H72.0735L72.082 36.2711Z" fill="#3B3B3B"/>
<path d="M77.3348 35.5857C77.6713 35.5783 78.0059 35.6383 78.3187 35.7621C78.6315 35.886 78.9161 36.0712 79.1555 36.3067C79.3949 36.5422 79.5843 36.8232 79.7124 37.1331C79.8405 37.4429 79.9047 37.7752 79.9012 38.1102C79.9012 38.7877 79.6308 39.4374 79.1495 39.9164C78.6682 40.3954 78.0154 40.6645 77.3348 40.6645C76.6541 40.6645 76.0014 40.3954 75.5201 39.9164C75.0388 39.4374 74.7684 38.7877 74.7684 38.1102C74.766 37.7755 74.831 37.4438 74.9596 37.1345C75.0881 36.8252 75.2775 36.5446 75.5167 36.3093C75.7559 36.0741 76.04 35.8888 76.3522 35.7645C76.6645 35.6403 76.9986 35.5795 77.3348 35.5857ZM77.3348 40.0728C77.5857 40.0668 77.8329 40.011 78.0618 39.9085C78.2907 39.8061 78.4967 39.6591 78.6677 39.4762C78.8387 39.2934 78.9712 39.0783 79.0574 38.8437C79.1436 38.6091 79.1818 38.3597 79.1698 38.1102C79.1818 37.8627 79.1432 37.6153 79.0563 37.3831C78.9693 37.1508 78.836 36.9386 78.6642 36.7592C78.4924 36.5797 78.2858 36.4369 78.0569 36.3393C77.8281 36.2417 77.5817 36.1914 77.3326 36.1914C77.0836 36.1914 76.8372 36.2417 76.6084 36.3393C76.3795 36.4369 76.1729 36.5797 76.0011 36.7592C75.8293 36.9386 75.696 37.1508 75.609 37.3831C75.5221 37.6153 75.4835 37.8627 75.4955 38.1102C75.4846 38.3596 75.5238 38.6086 75.6108 38.8428C75.6978 39.0769 75.8308 39.2914 76.0021 39.4737C76.1733 39.6561 76.3794 39.8026 76.6082 39.9047C76.8371 40.0069 77.0841 40.0625 77.3348 40.0685V40.0728Z" fill="#3B3B3B"/>
<path d="M80.8978 39.5321C81.2464 39.8587 81.7025 40.0478 82.181 40.0643C82.2859 40.0761 82.3921 40.0663 82.493 40.0355C82.5939 40.0047 82.6874 39.9535 82.7676 39.8853C82.8478 39.817 82.9131 39.733 82.9594 39.6386C83.0056 39.5442 83.0319 39.4413 83.0365 39.3363C83.0365 38.2593 80.6198 38.4849 80.6198 36.9693C80.6198 36.1945 81.2913 35.5857 82.228 35.5857C82.7451 35.5668 83.25 35.745 83.6396 36.0838L83.323 36.6586C83.0183 36.3952 82.6315 36.2448 82.228 36.2328C82.121 36.221 82.0126 36.2304 81.9092 36.2604C81.8058 36.2905 81.7094 36.3406 81.6255 36.4078C81.5416 36.4751 81.4719 36.5582 81.4205 36.6524C81.369 36.7466 81.3367 36.8499 81.3255 36.9566C81.3255 37.9825 83.7422 37.7101 83.7422 39.3193C83.7422 40.0813 83.1477 40.7156 82.1596 40.7156C81.5439 40.7227 80.9503 40.487 80.5085 40.06L80.8978 39.5321Z" fill="#3B3B3B"/>
<path d="M86.5098 35.6666H88.1608C89.6836 35.6666 90.6888 36.5734 90.6888 38.14C90.6888 39.7067 89.6836 40.6262 88.1608 40.6262H86.5098V35.6666ZM88.1138 40.0217C89.2345 40.0217 89.9659 39.3619 89.9659 38.14C89.9914 37.8906 89.9613 37.6385 89.8776 37.402C89.7939 37.1654 89.6588 36.9502 89.4819 36.7717C89.3049 36.5931 89.0905 36.4557 88.8541 36.3691C88.6176 36.2826 88.3648 36.2492 88.1138 36.2711H87.207V40.0217H88.1138Z" fill="#3B3B3B"/>
<path d="M91.7109 35.6666H94.6025V36.2711H92.4082V37.825H94.1961V38.4295H92.4082V40.0217H94.7265V40.6262H91.7323L91.7109 35.6666Z" fill="#3B3B3B"/>
<path d="M97.541 39.5321C97.8896 39.8587 98.3457 40.0478 98.8242 40.0643C98.9292 40.0767 99.0356 40.0673 99.1368 40.0368C99.238 40.0062 99.3317 39.9552 99.4121 39.8868C99.4925 39.8184 99.5577 39.7341 99.6038 39.6394C99.6498 39.5447 99.6757 39.4415 99.6797 39.3363C99.6797 38.2592 97.2672 38.4849 97.2672 36.9693C97.2672 36.1945 97.9388 35.5857 98.8755 35.5857C99.3924 35.5681 99.8968 35.7461 100.287 36.0838L99.9705 36.6585C99.6658 36.3952 99.2789 36.2448 98.8755 36.2328C98.7683 36.2204 98.6598 36.2294 98.5561 36.2592C98.4525 36.289 98.3559 36.339 98.2718 36.4064C98.1878 36.4738 98.1182 36.5571 98.0668 36.6516C98.0155 36.746 97.9836 36.8497 97.973 36.9565C97.973 37.9825 100.385 37.7101 100.385 39.3193C100.385 40.0813 99.7951 40.7156 98.8071 40.7156C98.5021 40.7198 98.1992 40.6641 97.9159 40.5516C97.6326 40.4391 97.3743 40.272 97.156 40.06L97.541 39.5321Z" fill="#3B3B3B"/>
<path d="M101.361 35.6666H104.252V36.2711H102.058V37.825H103.841V38.4295H102.058V40.0217H104.372V40.6262H101.378L101.361 35.6666Z" fill="#3B3B3B"/>
<path d="M107.554 35.5857C108.211 35.5589 108.856 35.7707 109.368 36.1817L109.017 36.7011C108.615 36.3888 108.12 36.2182 107.61 36.2158C107.096 36.2107 106.601 36.409 106.234 36.7671C105.867 37.1252 105.658 37.6137 105.653 38.1251C105.648 38.6366 105.847 39.1291 106.207 39.4944C106.567 39.8597 107.058 40.0677 107.571 40.0728C108.104 40.059 108.609 39.8372 108.979 39.4555V38.736H108.17V38.1315H109.616V40.6262H109V40.3154C109 40.2133 109 40.1069 109 40.1069C108.798 40.3034 108.558 40.458 108.295 40.5617C108.032 40.6655 107.751 40.7164 107.469 40.7114C107.138 40.7094 106.81 40.641 106.506 40.5105C106.202 40.38 105.928 40.1899 105.699 39.9515C105.47 39.7132 105.292 39.4315 105.175 39.1232C105.058 38.8149 105.005 38.4864 105.018 38.1571C105.008 37.8207 105.067 37.4858 105.19 37.1725C105.313 36.8592 105.499 36.574 105.736 36.3338C105.973 36.0937 106.256 35.9037 106.568 35.7751C106.881 35.6466 107.216 35.5821 107.554 35.5857Z" fill="#3B3B3B"/>
<path d="M110.621 35.6666H111.318V38.8723C111.307 39.0368 111.333 39.2017 111.393 39.3554C111.452 39.5092 111.545 39.6481 111.665 39.7624C111.784 39.8767 111.927 39.9637 112.084 40.0174C112.24 40.071 112.407 40.0899 112.572 40.0728C112.74 40.0926 112.91 40.0753 113.071 40.022C113.232 39.9687 113.378 39.8808 113.501 39.7645C113.624 39.6482 113.719 39.5064 113.78 39.3492C113.841 39.192 113.867 39.0234 113.855 38.8552V35.6666H114.556V38.8723C114.556 39.9749 113.756 40.7114 112.593 40.7114C111.43 40.7114 110.634 39.9749 110.634 38.8723L110.621 35.6666Z" fill="#3B3B3B"/>
<path d="M115.805 35.6666H117.341C117.655 35.6446 117.97 35.6837 118.269 35.7816C118.526 35.9038 118.741 36.097 118.89 36.3379C119.039 36.5789 119.115 36.8575 119.109 37.1404C119.104 37.4233 119.016 37.6985 118.857 37.9332C118.698 38.1678 118.475 38.352 118.214 38.4636C118.27 38.5345 118.32 38.61 118.363 38.6892L119.42 40.6135H118.624L117.576 38.6424H116.511V40.6135H115.81L115.805 35.6666ZM117.516 38.0507C117.636 38.0585 117.756 38.0405 117.868 37.9978C117.98 37.9552 118.081 37.8889 118.165 37.8035C118.249 37.7181 118.313 37.6157 118.353 37.5033C118.393 37.3909 118.408 37.2712 118.397 37.1524C118.41 37.0008 118.38 36.8486 118.311 36.7132C118.241 36.5777 118.135 36.4644 118.004 36.3861C117.79 36.2893 117.554 36.2497 117.32 36.2711H116.515V38.0507H117.516Z" fill="#3B3B3B"/>
<path d="M122.777 39.2171H120.9L120.408 40.6433H119.689L121.481 35.6837H122.213L124.005 40.6433H123.278L122.777 39.2171ZM121.841 36.3691C121.841 36.3691 121.725 36.8161 121.644 37.0672L121.084 38.6424H122.594L122.046 37.0672C121.96 36.8161 121.854 36.3691 121.854 36.3691H121.841Z" fill="#3B3B3B"/>
<path d="M124.719 35.6666H125.412L127.628 38.8936C127.783 39.1243 127.926 39.363 128.056 39.6088C128.056 39.6088 128.009 39.183 128.009 38.8936V35.6666H128.706V40.6262H128.034L125.814 37.4121C125.63 37.1354 125.387 36.6883 125.387 36.6883C125.387 36.6883 125.434 37.1141 125.434 37.4121V40.6262H124.736L124.719 35.6666Z" fill="#3B3B3B"/>
<path d="M132.248 35.5857C132.914 35.56 133.565 35.7936 134.061 36.2371L133.719 36.7565C133.316 36.4156 132.806 36.2245 132.277 36.2158C132.029 36.2114 131.783 36.2578 131.553 36.3523C131.324 36.4468 131.116 36.5873 130.944 36.765C130.771 36.9427 130.638 37.1538 130.55 37.3852C130.463 37.6167 130.425 37.8635 130.438 38.1102C130.424 38.3612 130.462 38.6124 130.548 38.8486C130.634 39.0848 130.768 39.3012 130.941 39.4846C131.113 39.668 131.322 39.8147 131.553 39.9158C131.784 40.0169 132.034 40.0703 132.286 40.0728C132.862 40.0613 133.412 39.8296 133.822 39.4257L134.198 39.9238C133.71 40.4079 133.056 40.6894 132.367 40.7114L132.312 40.9796C132.447 40.9807 132.577 41.035 132.672 41.1307C132.767 41.2264 132.821 41.3557 132.821 41.4904C132.821 41.9162 132.461 42.0779 132.102 42.0779C131.971 42.0789 131.84 42.0631 131.713 42.0311V41.6054C131.808 41.6374 131.908 41.6547 132.008 41.6565C132.188 41.6565 132.35 41.6011 132.35 41.4394C132.35 41.2776 132.192 41.218 131.974 41.218H131.845L131.987 40.6731C131.306 40.6386 130.667 40.3365 130.21 39.8331C129.753 39.3297 129.516 38.6664 129.551 37.9889C129.585 37.3115 129.889 36.6755 130.395 36.2208C130.9 35.7661 131.567 35.53 132.248 35.5645V35.5857Z" fill="#3B3B3B"/>
<path d="M137.598 39.2171H135.733L135.242 40.6433H134.523L136.315 35.6837H137.017L138.809 40.6433H138.082L137.598 39.2171ZM136.662 36.3691C136.662 36.3691 136.546 36.8161 136.465 37.0672L135.905 38.6424H137.414L136.867 37.0672C136.781 36.8161 136.674 36.3691 136.674 36.3691H136.662Z" fill="#3B3B3B"/>
<path d="M141.333 35.6666H142.034V40.6262H141.333V35.6666Z" fill="#3B3B3B"/>
<path d="M143.364 35.6666H144.057L146.273 38.8936C146.428 39.1243 146.571 39.363 146.701 39.6088C146.701 39.6088 146.649 39.183 146.649 38.8936V35.6666H147.346V40.6262H146.662L144.442 37.4121C144.258 37.1354 144.014 36.6883 144.014 36.6883C144.014 36.6883 144.066 37.1141 144.066 37.4121V40.6262H143.364V35.6666Z" fill="#3B3B3B"/>
<path d="M148.69 35.6666H150.336C151.864 35.6666 152.864 36.5734 152.864 38.14C152.864 39.7067 151.864 40.6262 150.336 40.6262H148.69V35.6666ZM150.277 40.0217C151.397 40.0217 152.133 39.3619 152.133 38.14C152.159 37.8902 152.128 37.6377 152.044 37.4009C151.961 37.164 151.825 36.9485 151.648 36.7699C151.47 36.5913 151.255 36.4539 151.018 36.3677C150.781 36.2815 150.528 36.2485 150.277 36.2711H149.374V40.0217H150.277Z" fill="#3B3B3B"/>
<path d="M153.891 35.6666H154.588V40.6262H153.891V35.6666Z" fill="#3B3B3B"/>
<path d="M155.285 35.6666H156.043L157.274 39.1745C157.368 39.4385 157.467 39.8557 157.467 39.8557C157.467 39.8557 157.565 39.43 157.659 39.1745L158.908 35.6666H159.648L157.813 40.6262H157.12L155.285 35.6666Z" fill="#3B3B3B"/>
<path d="M160.358 35.6666H161.06V40.6262H160.358V35.6666Z" fill="#3B3B3B"/>
<path d="M162.394 35.6666H164.045C165.568 35.6666 166.569 36.5734 166.569 38.14C166.569 39.7067 165.568 40.6262 164.045 40.6262H162.394V35.6666ZM163.994 40.0217C165.115 40.0217 165.85 39.3619 165.85 38.14C165.876 37.8902 165.846 37.6377 165.762 37.4009C165.678 37.164 165.542 36.9485 165.365 36.7699C165.188 36.5913 164.973 36.4539 164.736 36.3677C164.499 36.2815 164.245 36.2485 163.994 36.2711H163.109V40.0217H163.994Z" fill="#3B3B3B"/>
<path d="M167.523 35.6666H168.242V38.8723C168.231 39.0368 168.256 39.2017 168.316 39.3554C168.376 39.5092 168.469 39.6481 168.588 39.7624C168.707 39.8767 168.85 39.9637 169.007 40.0174C169.164 40.071 169.33 40.0899 169.495 40.0728C169.663 40.0926 169.833 40.0753 169.994 40.022C170.155 39.9687 170.302 39.8808 170.424 39.7645C170.547 39.6482 170.642 39.5064 170.703 39.3492C170.764 39.192 170.79 39.0234 170.778 38.8552V35.6666H171.475V38.8723C171.475 39.9749 170.68 40.7114 169.516 40.7114C168.353 40.7114 167.553 39.9749 167.553 38.8723L167.523 35.6666Z" fill="#3B3B3B"/>
<path d="M175.132 39.2171H173.255L172.763 40.6433H172.04L173.832 35.6837H174.568L176.368 40.6262H175.641L175.132 39.2171ZM174.191 36.3691C174.191 36.3691 174.08 36.8161 173.995 37.0672L173.438 38.6424H174.948L174.397 37.0672C174.311 36.8161 174.208 36.3691 174.208 36.3691H174.191Z" fill="#3B3B3B"/>
<path d="M177.074 35.6666H177.771V40.0217H180V40.6262H177.074V35.6666Z" fill="#3B3B3B"/>
<path d="M52.7527 19.7235C55.0925 19.7235 56.6409 21.1667 56.6409 23.4996C56.6409 25.7346 55.0925 27.2246 52.7527 27.2246C50.413 27.2246 48.8689 25.7346 48.8689 23.4996C48.8689 21.1667 50.366 19.7235 52.7527 19.7235Z" fill="#FBB307"/>
<path d="M60.8798 25.4707V20.162C62.6874 21.2041 64.702 21.8405 66.7825 22.0266C67.4817 22.0743 68.1841 22.0256 68.8699 21.8819C70.6621 21.5967 71.7058 20.8431 71.7058 19.5873C71.7058 17.8844 70.3028 16.9691 67.0777 15.6749C62.9671 14.0274 60.5547 12.1244 60.5547 7.64164C60.5547 3.04815 64.0108 0.106439 69.0666 0.106439C71.1764 0.0937833 73.2646 0.529189 75.1918 1.38359V6.4922C73.4595 5.45687 71.4765 4.91085 69.4559 4.91279C67.0434 4.91279 65.4779 5.9558 65.4779 7.60332C65.4779 9.11036 66.7611 10.1576 69.9435 11.4773C74.054 13.2356 76.5948 15.1385 76.5948 19.4808C76.5948 24.1424 73.3996 26.9437 67.8561 26.9437C65.4516 26.9553 63.0725 26.453 60.8798 25.4707Z" fill="#3B3B3B"/>
<path d="M137.017 25.4707V20.162C138.824 21.2041 140.839 21.8405 142.919 22.0266C143.619 22.0743 144.321 22.0256 145.007 21.8819C146.799 21.5967 147.843 20.8431 147.843 19.5873C147.843 17.8844 146.44 16.9691 143.215 15.6749C139.104 14.0274 136.692 12.1244 136.692 7.64164C136.692 3.04815 140.148 0.106439 145.204 0.106439C147.313 0.0937833 149.402 0.529189 151.329 1.38359V6.4922C149.596 5.45687 147.613 4.91085 145.593 4.91279C143.18 4.91279 141.615 5.9558 141.615 7.60332C141.615 9.11036 142.898 10.1576 146.08 11.4773C150.191 13.2356 152.732 15.1385 152.732 19.4808C152.732 24.1424 149.537 26.9437 143.993 26.9437C141.589 26.9553 139.209 26.453 137.017 25.4707Z" fill="#3B3B3B"/>
<path d="M30.4164 25.4707V20.162C32.224 21.2041 34.2386 21.8405 36.3192 22.0266C37.0183 22.0743 37.7207 22.0256 38.4065 21.8819C40.1987 21.5967 41.2424 20.8431 41.2424 19.5873C41.2424 17.8844 39.8394 16.9691 36.6143 15.6749C32.5037 14.0274 30.0913 12.1244 30.0913 7.64164C30.0913 3.04815 33.5474 0.106439 38.6033 0.106439C40.713 0.0937833 42.8012 0.529189 44.7285 1.38359V6.4922C42.9961 5.45687 41.0131 4.91085 38.9925 4.91279C36.5801 4.91279 35.0146 5.9558 35.0146 7.60332C35.0146 9.11036 36.2978 10.1576 39.4801 11.4773C43.5907 13.2356 46.1314 15.1385 46.1314 19.4808C46.1314 24.1424 42.9362 26.9437 37.3928 26.9437C34.9882 26.9553 32.6091 26.453 30.4164 25.4707Z" fill="#3B3B3B"/>
<path d="M93.9094 0.106445C101.801 0.106445 107.597 6.11332 107.597 13.64C107.597 21.2391 101.814 27.1736 93.9094 27.1736C86.0048 27.1736 80.2004 21.2391 80.2004 13.64C80.2004 6.15163 85.9834 0.106445 93.9094 0.106445ZM93.9094 22.0735C98.6145 22.0735 101.981 18.3101 101.981 13.64C101.981 8.96988 98.6359 5.20654 93.9094 5.20654C89.1829 5.20654 85.838 9.0082 85.838 13.64C85.838 18.2718 89.1829 22.0735 93.9094 22.0735Z" fill="#3B3B3B"/>
<path d="M131.884 17.1862C131.884 23.2655 128.346 27.1735 122.285 27.1735C116.224 27.1735 112.687 23.2655 112.687 17.1862V0.613037H117.602V16.6541C117.602 20.0598 119.313 22.082 122.307 22.082C125.301 22.082 127.012 20.0556 127.012 16.6541V0.613037H131.884V17.1862Z" fill="#3B3B3B"/>
<path d="M166.462 0.21286H166.659L178.122 26.6669H172.848L170.949 22.0735H162.138L160.303 26.6669H155.024L166.462 0.21286ZM169.456 18.1654C168.374 15.4493 167.318 12.6992 166.603 10.4216C165.919 12.2309 164.67 15.7047 163.69 18.1654H169.456Z" fill="#3B3B3B"/>
</g>
<defs>
<clipPath id="clip0">
<rect width="180" height="42.0779" fill="white"/>
</clipPath>
</defs>
</svg>
