<svg width="180" height="43" viewBox="0 0 180 43" fill="none" xmlns="http://www.w3.org/2000/svg">
<g clip-path="url(#clip0)">
<path d="M18.2687 25.5346L15.2746 23.291L9.15796 18.7061L15.2746 23.2868L18.2687 25.5346Z" fill="white"/>
<path d="M9.10223 30.5539V34.3215L6.32194 32.2397L6.19362 32.1418L5.53063 31.6437L2.99415 29.7407L0 27.4972V18.7317L2.99415 20.9752V25.9689L6.07386 28.2805L9.10223 30.5539Z" fill="#FBB307"/>
<path d="M15.2745 6.71357V2.98002H2.99415V14.0785L6.61708 16.7946V16.7988L9.15783 18.706L15.2745 23.291L18.2686 25.5345V40.6347H0V31.9927L2.99415 34.2362V37.6547H15.2745V27.0203L2.99415 17.812L0 15.5642V0H18.2686V8.96136L15.2745 6.71357Z" fill="#FBB307"/>
<path d="M18.2687 13.4526V22.3714L15.2745 20.1236V14.9809L12.5712 12.9545L9.54712 10.6854V6.91357L15.2745 11.2091L18.2687 13.4526Z" fill="#FBB307"/>
<path d="M30.0828 35.6665H32.9743V36.271H30.78V37.8249H32.5679V38.4294H30.78V40.0216H33.094V40.6261H30.0999L30.0828 35.6665Z" fill="white"/>
<path d="M36.3019 35.5857C36.639 35.5789 36.9741 35.6395 37.2872 35.7641C37.6003 35.8887 37.885 36.0747 38.1244 36.311C38.3638 36.5473 38.5531 36.8291 38.6809 37.1397C38.8087 37.4502 38.8724 37.7832 38.8683 38.1188C38.8682 38.7159 38.6612 39.2947 38.2823 39.7578L38.8726 40.3154L38.4663 40.7412L37.8846 40.1622C37.4367 40.5175 36.8789 40.7071 36.3062 40.6986C35.9659 40.6986 35.629 40.6313 35.3151 40.5006C35.0012 40.3698 34.7166 40.1782 34.4777 39.937C34.2389 39.6957 34.0507 39.4096 33.924 39.0952C33.7973 38.7809 33.7347 38.4446 33.7398 38.106C33.7369 37.7717 33.8014 37.4402 33.9295 37.1312C34.0576 36.8221 34.2467 36.5418 34.4856 36.3068C34.7245 36.0718 35.0083 35.8869 35.3203 35.763C35.6323 35.6392 35.9661 35.5789 36.3019 35.5857ZM36.3019 40.0728C36.6916 40.07 37.0698 39.9416 37.3798 39.7067L36.7938 39.1362L37.2216 38.7105L37.7947 39.2852C38.036 38.947 38.1646 38.542 38.1626 38.1273C38.1626 37.6418 37.9688 37.1761 37.6239 36.8328C37.2789 36.4895 36.8111 36.2967 36.3233 36.2967C35.8355 36.2967 35.3677 36.4895 35.0228 36.8328C34.6778 37.1761 34.4841 37.6418 34.4841 38.1273C34.4738 38.3739 34.5128 38.6201 34.5988 38.8517C34.6849 39.0832 34.8163 39.2954 34.9854 39.476C35.1545 39.6566 35.358 39.8019 35.584 39.9037C35.81 40.0054 36.054 40.0614 36.3019 40.0685V40.0728Z" fill="white"/>
<path d="M39.865 35.6665H40.5665V38.8722C40.5556 39.0367 40.581 39.2016 40.6408 39.3553C40.7006 39.5091 40.7935 39.6479 40.9128 39.7623C41.0322 39.8766 41.1752 39.9636 41.3318 40.0172C41.4885 40.0708 41.655 40.0898 41.8197 40.0727C41.9879 40.0925 42.1584 40.0752 42.319 40.0219C42.4797 39.9686 42.6266 39.8806 42.7491 39.7643C42.8717 39.648 42.967 39.5063 43.0281 39.3491C43.0893 39.1919 43.1148 39.0233 43.103 38.8551V35.6665H43.8044V38.8722C43.8044 39.9748 43.0046 40.7113 41.8411 40.7113C40.6777 40.7113 39.8778 39.9748 39.8778 38.8722L39.865 35.6665Z" fill="white"/>
<path d="M45.0535 35.6665H45.7507V40.6261H45.0535V35.6665Z" fill="white"/>
<path d="M47.0853 35.6666H48.9032C49.1113 35.6556 49.3195 35.6883 49.5141 35.7624C49.7088 35.8366 49.8856 35.9506 50.0332 36.097C50.1808 36.2435 50.2958 36.4192 50.3708 36.6127C50.4458 36.8063 50.4792 37.0133 50.4687 37.2205C50.479 37.4284 50.4456 37.6362 50.3708 37.8305C50.2959 38.0249 50.1812 38.2016 50.0339 38.3494C49.8866 38.4972 49.71 38.6128 49.5153 38.6889C49.3207 38.765 49.1122 38.7999 48.9032 38.7914H47.7825V40.622H47.0811L47.0853 35.6666ZM48.7963 38.1911C48.9263 38.2009 49.0569 38.1824 49.179 38.1369C49.3011 38.0914 49.4117 38.02 49.5033 37.9276C49.5949 37.8353 49.6652 37.7242 49.7093 37.6021C49.7534 37.48 49.7702 37.3497 49.7587 37.2205C49.7699 37.0927 49.7527 36.9639 49.7084 36.8434C49.6642 36.7229 49.5939 36.6135 49.5025 36.523C49.4112 36.4324 49.3009 36.363 49.1796 36.3195C49.0583 36.2759 48.9289 36.2594 48.8005 36.2711H47.7868V38.1911H48.7963Z" fill="white"/>
<path d="M53.6423 39.217H51.7646L51.2727 40.6431H50.5498L52.3249 35.6665H53.0606L54.8913 40.6261H54.1642L53.6423 39.217ZM52.7056 36.3689C52.7056 36.3689 52.5901 36.8159 52.5046 37.0671L51.9485 38.6423H53.4584L52.9066 37.0671C52.8254 36.8159 52.7184 36.3689 52.7184 36.3689H52.7056Z" fill="white"/>
<path d="M55.8323 35.6665H56.5638L57.7058 38.3528C57.8213 38.6252 57.9539 39.0169 57.9539 39.0169C57.9539 39.0169 58.0908 38.6252 58.202 38.3528L59.344 35.6665H60.0798L60.4818 40.6261H59.7889L59.5451 37.5013C59.5451 37.1991 59.5451 36.7691 59.5451 36.7691C59.5451 36.7691 59.3954 37.2289 59.2756 37.5013L58.279 39.7364H57.6588L56.6621 37.5141C56.5509 37.2459 56.3969 36.7691 56.3969 36.7691C56.3969 36.7691 56.3969 37.1948 56.3969 37.5141L56.1574 40.6389H55.4602L55.8323 35.6665Z" fill="white"/>
<path d="M61.6753 35.6665H64.5668V36.271H62.3725V37.8249H64.1562V38.4294H62.3725V40.0216H64.6866V40.6261H61.6924L61.6753 35.6665Z" fill="white"/>
<path d="M65.696 35.6665H66.389L68.6047 38.8934C68.7598 39.1241 68.9026 39.3629 69.0324 39.6087C69.0324 39.6087 68.9811 39.1829 68.9811 38.8934V35.6665H69.6783V40.6261H69.0067L66.7868 37.4119C66.6028 37.1352 66.359 36.6882 66.359 36.6882C66.359 36.6882 66.4104 37.1139 66.4104 37.4119V40.6261H65.7089L65.696 35.6665Z" fill="white"/>
<path d="M72.082 36.271H70.3711V35.6665H74.4859V36.271H72.775V40.6261H72.0735L72.082 36.271Z" fill="white"/>
<path d="M77.3348 35.5858C77.6713 35.5784 78.0059 35.6384 78.3187 35.7622C78.6315 35.8861 78.9161 36.0713 79.1555 36.3068C79.3949 36.5423 79.5843 36.8233 79.7124 37.1332C79.8405 37.443 79.9047 37.7753 79.9012 38.1103C79.9012 38.7878 79.6308 39.4375 79.1495 39.9165C78.6682 40.3955 78.0154 40.6646 77.3348 40.6646C76.6541 40.6646 76.0014 40.3955 75.5201 39.9165C75.0388 39.4375 74.7684 38.7878 74.7684 38.1103C74.766 37.7756 74.831 37.4439 74.9596 37.1346C75.0881 36.8253 75.2775 36.5447 75.5167 36.3094C75.7559 36.0742 76.04 35.8889 76.3522 35.7646C76.6645 35.6404 76.9986 35.5796 77.3348 35.5858ZM77.3348 40.0729C77.5857 40.0669 77.8329 40.0111 78.0618 39.9086C78.2907 39.8062 78.4967 39.6592 78.6677 39.4763C78.8387 39.2935 78.9712 39.0784 79.0574 38.8438C79.1436 38.6092 79.1818 38.3598 79.1698 38.1103C79.1818 37.8628 79.1432 37.6154 79.0563 37.3832C78.9693 37.1509 78.836 36.9387 78.6642 36.7592C78.4924 36.5798 78.2858 36.437 78.0569 36.3394C77.8281 36.2418 77.5817 36.1915 77.3326 36.1915C77.0836 36.1915 76.8372 36.2418 76.6084 36.3394C76.3795 36.437 76.1729 36.5798 76.0011 36.7592C75.8293 36.9387 75.696 37.1509 75.609 37.3832C75.5221 37.6154 75.4835 37.8628 75.4955 38.1103C75.4846 38.3597 75.5238 38.6087 75.6108 38.8428C75.6978 39.077 75.8308 39.2915 76.0021 39.4738C76.1733 39.6562 76.3794 39.8027 76.6082 39.9048C76.8371 40.0069 77.0841 40.0626 77.3348 40.0686V40.0729Z" fill="white"/>
<path d="M80.8978 39.5322C81.2464 39.8588 81.7025 40.0479 82.181 40.0644C82.2859 40.0762 82.3921 40.0663 82.493 40.0355C82.5939 40.0047 82.6874 39.9536 82.7676 39.8854C82.8478 39.8171 82.9131 39.7331 82.9594 39.6387C83.0056 39.5443 83.0319 39.4414 83.0365 39.3364C83.0365 38.2593 80.6198 38.485 80.6198 36.9694C80.6198 36.1946 81.2913 35.5858 82.228 35.5858C82.7451 35.5669 83.25 35.7451 83.6396 36.0839L83.323 36.6586C83.0183 36.3953 82.6315 36.2449 82.228 36.2329C82.121 36.2211 82.0126 36.2305 81.9092 36.2605C81.8058 36.2906 81.7094 36.3407 81.6255 36.4079C81.5416 36.4752 81.4719 36.5583 81.4205 36.6525C81.369 36.7466 81.3367 36.85 81.3255 36.9567C81.3255 37.9826 83.7422 37.7102 83.7422 39.3194C83.7422 40.0814 83.1477 40.7157 82.1596 40.7157C81.5439 40.7228 80.9503 40.4871 80.5085 40.0601L80.8978 39.5322Z" fill="white"/>
<path d="M86.5098 35.6665H88.1608C89.6836 35.6665 90.6888 36.5733 90.6888 38.1399C90.6888 39.7066 89.6836 40.6261 88.1608 40.6261H86.5098V35.6665ZM88.1138 40.0216C89.2345 40.0216 89.9659 39.3617 89.9659 38.1399C89.9914 37.8904 89.9613 37.6384 89.8776 37.4019C89.7939 37.1653 89.6588 36.9501 89.4819 36.7715C89.3049 36.593 89.0905 36.4555 88.8541 36.369C88.6176 36.2825 88.3648 36.249 88.1138 36.271H87.207V40.0216H88.1138Z" fill="white"/>
<path d="M91.7109 35.6665H94.6025V36.271H92.4082V37.8249H94.1961V38.4294H92.4082V40.0216H94.7265V40.6261H91.7323L91.7109 35.6665Z" fill="white"/>
<path d="M97.541 39.5321C97.8896 39.8586 98.3457 40.0477 98.8242 40.0642C98.9292 40.0766 99.0356 40.0673 99.1368 40.0367C99.238 40.0062 99.3317 39.9551 99.4121 39.8867C99.4925 39.8183 99.5577 39.7341 99.6038 39.6393C99.6498 39.5446 99.6757 39.4414 99.6797 39.3362C99.6797 38.2592 97.2672 38.4848 97.2672 36.9692C97.2672 36.1944 97.9388 35.5857 98.8755 35.5857C99.3924 35.568 99.8968 35.746 100.287 36.0838L99.9705 36.6585C99.6658 36.3951 99.2789 36.2447 98.8755 36.2328C98.7683 36.2204 98.6598 36.2293 98.5561 36.2591C98.4525 36.2889 98.3559 36.339 98.2718 36.4064C98.1878 36.4737 98.1182 36.5571 98.0668 36.6515C98.0155 36.746 97.9836 36.8496 97.973 36.9565C97.973 37.9825 100.385 37.71 100.385 39.3192C100.385 40.0812 99.7951 40.7156 98.8071 40.7156C98.5021 40.7198 98.1992 40.664 97.9159 40.5515C97.6326 40.439 97.3743 40.272 97.156 40.06L97.541 39.5321Z" fill="white"/>
<path d="M101.361 35.6665H104.252V36.271H102.058V37.8249H103.841V38.4294H102.058V40.0216H104.372V40.6261H101.378L101.361 35.6665Z" fill="white"/>
<path d="M107.554 35.5858C108.211 35.559 108.856 35.7708 109.368 36.1818L109.017 36.7011C108.615 36.3889 108.12 36.2182 107.61 36.2158C107.096 36.2107 106.601 36.4091 106.234 36.7671C105.867 37.1252 105.658 37.6137 105.653 38.1252C105.648 38.6366 105.847 39.1292 106.207 39.4944C106.567 39.8597 107.058 40.0677 107.571 40.0728C108.104 40.059 108.609 39.8372 108.979 39.4555V38.7361H108.17V38.1316H109.616V40.6263H109V40.3155C109 40.2133 109 40.1069 109 40.1069C108.798 40.3034 108.558 40.458 108.295 40.5618C108.032 40.6655 107.751 40.7164 107.469 40.7114C107.138 40.7094 106.81 40.6411 106.506 40.5105C106.202 40.38 105.928 40.1899 105.699 39.9516C105.47 39.7132 105.292 39.4315 105.175 39.1232C105.058 38.815 105.005 38.4864 105.018 38.1571C105.008 37.8207 105.067 37.4858 105.19 37.1725C105.313 36.8592 105.499 36.574 105.736 36.3339C105.973 36.0937 106.256 35.9037 106.568 35.7751C106.881 35.6466 107.216 35.5822 107.554 35.5858Z" fill="white"/>
<path d="M110.621 35.6665H111.318V38.8722C111.307 39.0367 111.333 39.2016 111.393 39.3553C111.452 39.5091 111.545 39.6479 111.665 39.7623C111.784 39.8766 111.927 39.9636 112.084 40.0172C112.24 40.0708 112.407 40.0898 112.572 40.0727C112.74 40.0925 112.91 40.0752 113.071 40.0219C113.232 39.9686 113.378 39.8806 113.501 39.7643C113.624 39.648 113.719 39.5063 113.78 39.3491C113.841 39.1919 113.867 39.0233 113.855 38.8551V35.6665H114.556V38.8722C114.556 39.9748 113.756 40.7113 112.593 40.7113C111.43 40.7113 110.634 39.9748 110.634 38.8722L110.621 35.6665Z" fill="white"/>
<path d="M115.805 35.6666H117.341C117.655 35.6446 117.97 35.6836 118.269 35.7815C118.526 35.9038 118.741 36.0969 118.89 36.3379C119.039 36.5789 119.115 36.8575 119.109 37.1404C119.104 37.4233 119.016 37.6985 118.857 37.9332C118.698 38.1678 118.475 38.352 118.214 38.4636C118.27 38.5345 118.32 38.61 118.363 38.6892L119.42 40.6134H118.624L117.576 38.6424H116.511V40.6134H115.81L115.805 35.6666ZM117.516 38.0506C117.636 38.0585 117.756 38.0405 117.868 37.9978C117.98 37.9551 118.081 37.8888 118.165 37.8035C118.249 37.7181 118.313 37.6157 118.353 37.5033C118.393 37.3909 118.408 37.2712 118.397 37.1524C118.41 37.0008 118.38 36.8486 118.311 36.7131C118.241 36.5777 118.135 36.4644 118.004 36.3861C117.79 36.2893 117.554 36.2497 117.32 36.2711H116.515V38.0506H117.516Z" fill="white"/>
<path d="M122.777 39.217H120.9L120.408 40.6432H119.689L121.481 35.6836H122.213L124.005 40.6432H123.278L122.777 39.217ZM121.841 36.369C121.841 36.369 121.725 36.816 121.644 37.0672L121.084 38.6423H122.594L122.046 37.0672C121.96 36.816 121.854 36.369 121.854 36.369H121.841Z" fill="white"/>
<path d="M124.719 35.6665H125.412L127.628 38.8934C127.783 39.1241 127.926 39.3629 128.056 39.6087C128.056 39.6087 128.009 39.1829 128.009 38.8934V35.6665H128.706V40.6261H128.034L125.814 37.4119C125.63 37.1352 125.387 36.6882 125.387 36.6882C125.387 36.6882 125.434 37.1139 125.434 37.4119V40.6261H124.736L124.719 35.6665Z" fill="white"/>
<path d="M132.248 35.5859C132.914 35.5601 133.565 35.7937 134.061 36.2372L133.719 36.7566C133.316 36.4157 132.806 36.2246 132.277 36.2159C132.029 36.2115 131.783 36.258 131.553 36.3524C131.324 36.4469 131.116 36.5874 130.944 36.7651C130.771 36.9428 130.638 37.1539 130.55 37.3854C130.463 37.6168 130.425 37.8636 130.438 38.1104C130.424 38.3613 130.462 38.6125 130.548 38.8488C130.634 39.085 130.768 39.3013 130.941 39.4847C131.113 39.6681 131.322 39.8148 131.553 39.9159C131.784 40.017 132.034 40.0704 132.286 40.0729C132.862 40.0614 133.412 39.8297 133.822 39.4258L134.198 39.9239C133.71 40.408 133.056 40.6895 132.367 40.7115L132.312 40.9797C132.447 40.9808 132.577 41.0351 132.672 41.1308C132.767 41.2265 132.821 41.3558 132.821 41.4906C132.821 41.9163 132.461 42.078 132.102 42.078C131.971 42.079 131.84 42.0633 131.713 42.0312V41.6055C131.808 41.6376 131.908 41.6548 132.008 41.6566C132.188 41.6566 132.35 41.6012 132.35 41.4395C132.35 41.2777 132.192 41.2181 131.974 41.2181H131.845L131.987 40.6732C131.306 40.6388 130.667 40.3366 130.21 39.8332C129.753 39.3298 129.516 38.6665 129.551 37.989C129.585 37.3116 129.889 36.6756 130.395 36.2209C130.9 35.7662 131.567 35.5301 132.248 35.5646V35.5859Z" fill="white"/>
<path d="M137.598 39.217H135.733L135.242 40.6432H134.523L136.315 35.6836H137.017L138.809 40.6432H138.082L137.598 39.217ZM136.662 36.369C136.662 36.369 136.546 36.816 136.465 37.0672L135.905 38.6423H137.414L136.867 37.0672C136.781 36.816 136.674 36.369 136.674 36.369H136.662Z" fill="white"/>
<path d="M141.333 35.6665H142.034V40.6261H141.333V35.6665Z" fill="white"/>
<path d="M143.364 35.6665H144.057L146.273 38.8934C146.428 39.1241 146.571 39.3629 146.701 39.6087C146.701 39.6087 146.649 39.1829 146.649 38.8934V35.6665H147.346V40.6261H146.662L144.442 37.4119C144.258 37.1352 144.014 36.6882 144.014 36.6882C144.014 36.6882 144.066 37.1139 144.066 37.4119V40.6261H143.364V35.6665Z" fill="white"/>
<path d="M148.69 35.6665H150.336C151.864 35.6665 152.864 36.5733 152.864 38.1399C152.864 39.7066 151.864 40.6261 150.336 40.6261H148.69V35.6665ZM150.277 40.0216C151.397 40.0216 152.133 39.3617 152.133 38.1399C152.159 37.89 152.128 37.6376 152.044 37.4007C151.961 37.1639 151.825 36.9484 151.648 36.7698C151.47 36.5911 151.255 36.4538 151.018 36.3676C150.781 36.2813 150.528 36.2484 150.277 36.271H149.374V40.0216H150.277Z" fill="white"/>
<path d="M153.891 35.6665H154.588V40.6261H153.891V35.6665Z" fill="white"/>
<path d="M155.285 35.6665H156.043L157.274 39.1744C157.368 39.4384 157.467 39.8556 157.467 39.8556C157.467 39.8556 157.565 39.4298 157.659 39.1744L158.908 35.6665H159.648L157.813 40.6261H157.12L155.285 35.6665Z" fill="white"/>
<path d="M160.358 35.6665H161.06V40.6261H160.358V35.6665Z" fill="white"/>
<path d="M162.394 35.6665H164.045C165.568 35.6665 166.569 36.5733 166.569 38.1399C166.569 39.7066 165.568 40.6261 164.045 40.6261H162.394V35.6665ZM163.994 40.0216C165.115 40.0216 165.85 39.3617 165.85 38.1399C165.876 37.89 165.846 37.6376 165.762 37.4007C165.678 37.1639 165.542 36.9484 165.365 36.7698C165.188 36.5911 164.973 36.4538 164.736 36.3676C164.499 36.2813 164.245 36.2484 163.994 36.271H163.109V40.0216H163.994Z" fill="white"/>
<path d="M167.523 35.6665H168.242V38.8722C168.231 39.0367 168.256 39.2016 168.316 39.3553C168.376 39.5091 168.469 39.6479 168.588 39.7623C168.707 39.8766 168.85 39.9636 169.007 40.0172C169.164 40.0708 169.33 40.0898 169.495 40.0727C169.663 40.0925 169.833 40.0752 169.994 40.0219C170.155 39.9686 170.302 39.8806 170.424 39.7643C170.547 39.648 170.642 39.5063 170.703 39.3491C170.764 39.1919 170.79 39.0233 170.778 38.8551V35.6665H171.475V38.8722C171.475 39.9748 170.68 40.7113 169.516 40.7113C168.353 40.7113 167.553 39.9748 167.553 38.8722L167.523 35.6665Z" fill="white"/>
<path d="M175.132 39.217H173.255L172.763 40.6432H172.04L173.832 35.6836H174.568L176.368 40.6262H175.641L175.132 39.217ZM174.191 36.369C174.191 36.369 174.08 36.816 173.995 37.0672L173.438 38.6423H174.948L174.397 37.0672C174.311 36.816 174.208 36.369 174.208 36.369H174.191Z" fill="white"/>
<path d="M177.074 35.6665H177.771V40.0216H180V40.6261H177.074V35.6665Z" fill="white"/>
<path d="M52.7527 19.7234C55.0925 19.7234 56.6409 21.1666 56.6409 23.4995C56.6409 25.7345 55.0925 27.2245 52.7527 27.2245C50.413 27.2245 48.8689 25.7345 48.8689 23.4995C48.8689 21.1666 50.366 19.7234 52.7527 19.7234Z" fill="#FBB307"/>
<path d="M60.8798 25.4707V20.162C62.6874 21.2041 64.702 21.8405 66.7825 22.0267C67.4817 22.0743 68.1841 22.0256 68.8699 21.8819C70.6621 21.5967 71.7058 20.8432 71.7058 19.5873C71.7058 17.8844 70.3028 16.9691 67.0777 15.675C62.9671 14.0274 60.5547 12.1245 60.5547 7.64167C60.5547 3.04818 64.0108 0.106469 69.0666 0.106469C71.1764 0.0938138 73.2646 0.529219 75.1918 1.38362V6.49223C73.4595 5.4569 71.4765 4.91088 69.4559 4.91282C67.0434 4.91282 65.4779 5.95583 65.4779 7.60335C65.4779 9.11039 66.7611 10.1577 69.9435 11.4774C74.054 13.2356 76.5948 15.1386 76.5948 19.4809C76.5948 24.1425 73.3996 26.9437 67.8561 26.9437C65.4516 26.9554 63.0725 26.453 60.8798 25.4707Z" fill="white"/>
<path d="M137.017 25.4707V20.162C138.824 21.2041 140.839 21.8405 142.919 22.0267C143.619 22.0743 144.321 22.0256 145.007 21.8819C146.799 21.5967 147.843 20.8432 147.843 19.5873C147.843 17.8844 146.44 16.9691 143.215 15.675C139.104 14.0274 136.692 12.1245 136.692 7.64167C136.692 3.04818 140.148 0.106469 145.204 0.106469C147.313 0.0938138 149.402 0.529219 151.329 1.38362V6.49223C149.596 5.4569 147.613 4.91088 145.593 4.91282C143.18 4.91282 141.615 5.95583 141.615 7.60335C141.615 9.11039 142.898 10.1577 146.08 11.4774C150.191 13.2356 152.732 15.1386 152.732 19.4809C152.732 24.1425 149.537 26.9437 143.993 26.9437C141.589 26.9554 139.209 26.453 137.017 25.4707Z" fill="white"/>
<path d="M30.4164 25.4707V20.162C32.224 21.2041 34.2386 21.8405 36.3192 22.0267C37.0183 22.0743 37.7207 22.0256 38.4065 21.8819C40.1987 21.5967 41.2424 20.8432 41.2424 19.5873C41.2424 17.8844 39.8394 16.9691 36.6143 15.675C32.5037 14.0274 30.0913 12.1245 30.0913 7.64167C30.0913 3.04818 33.5474 0.106469 38.6033 0.106469C40.713 0.0938138 42.8012 0.529219 44.7285 1.38362V6.49223C42.9961 5.4569 41.0131 4.91088 38.9925 4.91282C36.5801 4.91282 35.0146 5.95583 35.0146 7.60335C35.0146 9.11039 36.2978 10.1577 39.4801 11.4774C43.5907 13.2356 46.1314 15.1386 46.1314 19.4809C46.1314 24.1425 42.9362 26.9437 37.3928 26.9437C34.9882 26.9554 32.6091 26.453 30.4164 25.4707Z" fill="white"/>
<path d="M93.9094 0.106445C101.801 0.106445 107.597 6.11332 107.597 13.64C107.597 21.2391 101.814 27.1736 93.9094 27.1736C86.0048 27.1736 80.2004 21.2391 80.2004 13.64C80.2004 6.15163 85.9834 0.106445 93.9094 0.106445ZM93.9094 22.0735C98.6145 22.0735 101.981 18.3101 101.981 13.64C101.981 8.96988 98.6359 5.20654 93.9094 5.20654C89.1829 5.20654 85.838 9.0082 85.838 13.64C85.838 18.2718 89.1829 22.0735 93.9094 22.0735Z" fill="white"/>
<path d="M131.884 17.1862C131.884 23.2655 128.346 27.1735 122.285 27.1735C116.224 27.1735 112.687 23.2655 112.687 17.1862V0.613037H117.602V16.6541C117.602 20.0598 119.313 22.082 122.307 22.082C125.301 22.082 127.012 20.0556 127.012 16.6541V0.613037H131.884V17.1862Z" fill="white"/>
<path d="M166.462 0.212891H166.659L178.122 26.667H172.848L170.949 22.0735H162.138L160.303 26.667H155.024L166.462 0.212891ZM169.456 18.1654C168.374 15.4493 167.318 12.6992 166.603 10.4216C165.919 12.2309 164.67 15.7048 163.69 18.1654H169.456Z" fill="white"/>
</g>
<defs>
<clipPath id="clip0">
<rect width="180" height="42.0779" fill="white"/>
</clipPath>
</defs>
</svg>
