<svg width="20" height="20" viewBox="0 0 20 20" fill="none" xmlns="http://www.w3.org/2000/svg">
<path d="M17.046 8.8783L13.8243 5.43638C13.8222 5.43417 13.8201 5.432 13.818 5.42987C13.6 5.20089 13.2057 4.98894 12.8963 4.93515L12.428 4.8537C12.769 4.21774 12.9411 3.57847 12.9411 2.94111C12.9411 1.3194 11.6217 0 9.99997 0C8.37822 0 7.05882 1.3194 7.05882 2.94115C7.05882 3.57851 7.23095 4.21774 7.57193 4.8537L7.1035 4.93515C6.7912 4.98945 6.39231 5.20494 6.17563 5.43638L2.95393 8.8783C2.89856 8.93745 2.8678 9.0154 2.8678 9.09638V14.6345C2.8678 14.8108 3.01069 14.9537 3.18695 14.9537H5.19554C5.3718 14.9537 5.51469 14.8108 5.51469 14.6345V10.4156L6.39648 9.4866V14.3523C6.29529 14.4059 6.22627 14.5121 6.22627 14.6345C6.22627 14.7569 6.29529 14.8631 6.39648 14.9167V19.3436C6.39648 19.4944 6.50205 19.6246 6.64967 19.6558C6.71618 19.6699 8.29788 20 9.99993 20C11.702 20 13.2837 19.6699 13.3502 19.6558C13.4978 19.6246 13.6033 19.4944 13.6033 19.3436V14.9167C13.7045 14.8631 13.7735 14.7569 13.7735 14.6345C13.7735 14.5121 13.7045 14.4059 13.6033 14.3523V9.48664L14.4851 10.4157V13.9028C14.4851 13.9037 14.4852 13.9045 14.4852 13.9053V14.6346C14.4852 14.8108 14.6281 14.9537 14.8044 14.9537H16.813C16.9892 14.9537 17.1321 14.8108 17.1321 14.6346V9.09643C17.1321 9.0154 17.1014 8.93745 17.046 8.8783ZM16.4938 14.3154H15.1235V9.09643C15.1235 8.92017 14.9806 8.77728 14.8044 8.77728C14.628 8.77728 14.4851 8.92017 14.4851 9.09643V9.48847L13.5157 8.46711C13.4258 8.37238 13.2872 8.342 13.1659 8.39038C13.0446 8.43877 12.965 8.55621 12.965 8.68681V14.3154H12.3261C12.1498 14.3154 12.0069 14.4583 12.0069 14.6346C12.0069 14.8108 12.1498 14.9537 12.3261 14.9537H12.965V19.0796C12.4549 19.1713 11.2458 19.3617 9.99988 19.3617C8.75393 19.3617 7.5449 19.1713 7.03473 19.0796V14.9537H7.67371C7.84997 14.9537 7.99286 14.8108 7.99286 14.6346C7.99286 14.4583 7.84997 14.3154 7.67371 14.3154H7.03473V8.68681C7.03473 8.55621 6.95516 8.43877 6.83388 8.39038C6.71261 8.34196 6.57405 8.37238 6.4841 8.46711L5.51465 9.48847V9.09643C5.51465 8.92017 5.37176 8.77728 5.1955 8.77728C5.01924 8.77728 4.87635 8.92017 4.87635 9.09643V14.3154H3.5061V9.22247L6.64167 5.8726C6.7641 5.74179 7.03639 5.59468 7.21286 5.564L7.93397 5.4386C8.17444 5.78115 8.46376 6.12226 8.80231 6.46115C8.9269 6.58587 9.12899 6.58592 9.25363 6.46136C9.37831 6.33677 9.37844 6.13472 9.25384 6.01004C8.22086 4.97617 7.69712 3.94362 7.69712 2.94115C7.69712 1.67136 8.73018 0.638298 9.99997 0.638298C11.2698 0.638298 12.3028 1.67136 12.3028 2.94115C12.3028 3.94247 11.7803 4.9737 10.7498 6.00634C10.6899 6.06434 10.6526 6.14545 10.6526 6.2354V18.3703C10.6526 18.5465 10.7955 18.6894 10.9717 18.6894C11.148 18.6894 11.2909 18.5465 11.2909 18.3703V6.36638C11.5896 6.05872 11.848 5.74928 12.066 5.43864L12.787 5.56404C12.9635 5.59472 13.2358 5.74183 13.3582 5.87264C13.3599 5.87447 13.3617 5.8763 13.3635 5.87809L16.4939 9.22247V14.3154H16.4938Z" fill="#E38A05"/>
<path d="M10 1.06384C8.96485 1.06384 8.12268 1.90601 8.12268 2.94116C8.12268 3.89993 8.68119 4.90533 9.78268 5.92942C9.84392 5.98635 9.92196 6.01482 10 6.01482C10.078 6.01482 10.156 5.98635 10.2173 5.92942C11.3188 4.90533 11.8773 3.89993 11.8773 2.94116C11.8773 1.90601 11.0351 1.06384 10 1.06384ZM10 5.25218C9.39196 4.64231 8.76098 3.80197 8.76098 2.94112C8.76098 2.25797 9.31681 1.70214 10 1.70214C10.6832 1.70214 11.239 2.25797 11.239 2.94116C11.239 3.80197 10.608 4.64231 10 5.25218Z" fill="#E38A05"/>
<path d="M9.99997 15.5571C9.81227 15.5571 9.65955 15.7098 9.65955 15.8975C9.65955 16.0852 9.81227 16.2379 9.99997 16.2379C10.1877 16.2379 10.3404 16.0852 10.3404 15.8975C10.3404 15.7098 10.1877 15.5571 9.99997 15.5571Z" fill="#E38A05"/>
<path d="M9.99997 13.0311C9.81227 13.0311 9.65955 13.1839 9.65955 13.3716C9.65955 13.5593 9.81227 13.712 9.99997 13.712C10.1877 13.712 10.3404 13.5593 10.3404 13.3716C10.3404 13.1839 10.1877 13.0311 9.99997 13.0311Z" fill="#E38A05"/>
<path d="M9.99997 10.5052C9.81227 10.5052 9.65955 10.6579 9.65955 10.8456C9.65955 11.0333 9.81227 11.1861 9.99997 11.1861C10.1877 11.1861 10.3404 11.0333 10.3404 10.8456C10.3404 10.6579 10.1877 10.5052 9.99997 10.5052Z" fill="#E38A05"/>
<path d="M9.99997 7.97925C9.81227 7.97925 9.65955 8.13197 9.65955 8.31967C9.65955 8.50738 9.81227 8.6601 9.99997 8.6601C10.1877 8.6601 10.3404 8.50738 10.3404 8.31967C10.3404 8.13197 10.1877 7.97925 9.99997 7.97925Z" fill="#E38A05"/>
</svg>
