<svg width="20" height="20" viewBox="0 0 20 20" fill="none" xmlns="http://www.w3.org/2000/svg">
<g clip-path="url(#clip0)">
<path d="M11.5399 13.7724H8.45999C8.08121 13.7724 8.08121 14.3583 8.45999 14.3583H11.5399C11.9187 14.3583 11.9187 13.7724 11.5399 13.7724Z" fill="#E38A05"/>
<path d="M11.5399 15.3323H8.45999C8.08121 15.3323 8.08121 15.9182 8.45999 15.9182H11.5399C11.9187 15.9182 11.9187 15.3323 11.5399 15.3323Z" fill="#E38A05"/>
<path d="M11.2392 16.8922H8.76077C8.38199 16.8922 8.38199 17.4781 8.76077 17.4781H11.2392C11.618 17.4781 11.618 16.8922 11.2392 16.8922Z" fill="#E38A05"/>
<path d="M17.7664 15.3761C17.6713 15.1448 17.4917 14.9644 17.2607 14.8682L15.9478 14.3399C15.7837 14.2784 15.6135 14.2656 15.4531 14.2943C16.2613 13.1689 16.7129 11.8061 16.7129 10.3822V5.10075C16.7129 2.28819 14.4227 0 11.6077 0H8.38269C7.48506 0 6.60208 0.236135 5.8293 0.682858C5.50137 0.87247 5.79454 1.37958 6.12259 1.19013C6.80634 0.794891 7.58787 0.585943 8.38269 0.585943H11.6077C14.0996 0.585943 16.1269 2.61128 16.1269 5.10075V5.52525C15.3913 4.18879 14.035 3.2396 12.4486 3.06776C12.4481 3.06769 12.4475 3.06753 12.447 3.06745C12.4452 3.06726 12.4434 3.06714 12.4416 3.06694C12.4024 3.06276 8.0612 3.03948 8.0612 3.03948C6.25431 3.03948 4.6782 4.04496 3.86342 5.52591C3.84717 4.27211 4.13143 3.10038 4.97695 2.13295C5.22621 1.84767 4.785 1.46212 4.53573 1.74736C3.72432 2.67581 3.27748 3.86672 3.27748 5.10075V10.3822C3.27748 11.8037 3.72913 13.1668 4.53675 14.2926C4.37929 14.2662 4.21284 14.2797 4.05214 14.3398L2.73927 14.8682C2.50829 14.9644 2.32868 15.1448 2.23356 15.3761C2.13837 15.6075 2.13915 15.8621 2.23567 16.0932L3.62768 19.4239C3.7778 19.7831 4.1271 20 4.49421 20C4.61406 20 6.10204 19.4241 6.10204 19.4241C6.58865 19.2419 6.83826 18.6669 6.63747 18.1864L6.25044 17.2602L6.86353 16.9977C7.27572 18.3369 8.52448 19.3132 9.99712 19.3132H10.003C11.4756 19.3132 12.7244 18.337 13.1366 16.9977L13.7497 17.2603L13.3626 18.1864C13.1623 18.6658 13.4102 19.2415 13.8981 19.4241L15.1469 19.928C15.6157 20.1233 16.176 19.8938 16.3724 19.4239L16.6508 18.7579C16.7969 18.4084 16.2562 18.1825 16.1101 18.5319L15.8318 19.198C15.7571 19.3767 15.551 19.4616 15.3722 19.3871L14.8288 19.1608L16.4915 15.1825L17.0355 15.4091C17.2249 15.5097 17.2877 15.6625 17.2238 15.8673L16.6837 17.1596C16.5376 17.5091 17.0782 17.735 17.2243 17.3855L17.7644 16.0932C17.8609 15.8622 17.8616 15.6075 17.7664 15.3761ZM10.9374 11.9832H9.06258C7.77034 11.9832 6.719 13.0345 6.719 14.3267V15.264L6.44923 15.3796C5.14449 14.4539 4.2646 13.0667 3.97135 11.5244C4.28847 11.7805 4.70652 11.9279 5.11348 11.9279H7.53744C8.48554 11.9279 9.30094 11.2521 9.47617 10.3212L9.66086 9.3404C9.72868 8.98028 10.2617 8.98024 10.3295 9.3404L10.5142 10.3212C10.6272 10.921 11.006 11.4145 11.5147 11.69C11.7964 11.8489 12.1305 11.9279 12.453 11.9279H14.8932C15.3167 11.9279 15.7065 11.7825 16.0164 11.5396C15.7208 13.0754 14.8442 14.454 13.5448 15.3771L13.281 15.2641V14.3268C13.281 13.0345 12.2296 11.9832 10.9374 11.9832ZM5.43524 15.3098C5.56121 15.4263 5.69184 15.5386 5.82739 15.6458L5.61387 15.7373L5.43524 15.3098ZM3.8719 9.50416L9.75325 3.62547H11.7344L4.3114 11.045C3.82913 10.633 3.87589 10.0692 3.8719 9.50416ZM16.1269 10.1944C16.0814 10.8347 15.5456 11.3419 14.8931 11.3419C14.0224 11.3419 13.0506 11.473 12.1915 11.3168L16.1092 7.39945C16.1103 7.41035 16.1269 10.1944 16.1269 10.1944ZM14.5702 15.2969L14.3861 15.7373L14.166 15.643C14.3057 15.5324 14.4407 15.4172 14.5702 15.2969ZM15.9782 6.70194L11.6177 11.062C11.3497 10.86 11.1558 10.5619 11.09 10.2127L10.9053 9.23189C10.7213 8.25469 9.26922 8.2534 9.085 9.23189L8.90031 10.2126C8.77714 10.8669 8.20393 11.3419 7.53737 11.3419H5.1134C5.02933 11.3419 4.94718 11.3334 4.86773 11.3172L12.5213 3.66734C14.1845 3.90277 15.5374 5.1147 15.9782 6.70194ZM8.0612 3.62547H8.92445L3.866 8.68157L3.86342 8.31645V7.65847C3.95003 5.41997 5.79961 3.62547 8.0612 3.62547ZM4.62781 19.3871C4.44913 19.4616 4.24292 19.3767 4.16823 19.198L2.77623 15.8673C2.74009 15.7808 2.73978 15.6855 2.77541 15.5989C2.81095 15.5125 2.8781 15.445 2.96451 15.409L3.5085 15.1825L5.17113 19.1608L4.62781 19.3871ZM6.09516 18.6866C6.03411 18.8276 5.86098 18.9137 5.71614 18.9428L4.05366 14.9649C4.26304 14.8457 4.59284 14.8137 4.70515 15.0825L6.0968 18.4124C6.13388 18.5011 6.13325 18.5985 6.09516 18.6866ZM6.02442 16.7197L5.83981 16.2779L6.719 15.9014C6.7156 16.072 6.72189 16.2431 6.74138 16.4126L6.02442 16.7197ZM12.695 16.0352C12.695 17.5197 11.4874 18.7273 10.0029 18.7273H9.99708C8.51265 18.7273 7.30498 17.5197 7.30498 16.0352V14.3267C7.30498 13.3576 8.09347 12.5691 9.06262 12.5691H10.9374C11.9066 12.5691 12.695 13.3576 12.695 14.3267V16.0352ZM13.2586 16.4126C13.2781 16.2431 13.2844 16.072 13.2809 15.9014L14.1601 16.2779L13.9755 16.7197L13.2586 16.4126ZM13.9048 18.6866C13.8667 18.5985 13.8661 18.5011 13.9032 18.4124L15.2948 15.0825C15.4062 14.8161 15.7378 14.8438 15.9463 14.9649L14.2838 18.9428C14.139 18.9137 13.9659 18.8276 13.9048 18.6866Z" fill="#E38A05"/>
</g>
<defs>
<clipPath id="clip0">
<rect width="20" height="20" fill="white"/>
</clipPath>
</defs>
</svg>
