<svg width="20" height="20" viewBox="0 0 20 20" fill="none" xmlns="http://www.w3.org/2000/svg">
<g clip-path="url(#clip0)">
<path d="M19.4148 7.95532C19.3419 7.94663 19.2688 7.93854 19.1959 7.92999L17.308 5.45334C16.521 4.42047 15.3418 3.82812 14.073 3.82812C13.9111 3.82812 13.7801 3.9592 13.7801 4.12109C13.7801 4.28299 13.9111 4.41406 14.073 4.41406C15.1573 4.41406 16.1667 4.92233 16.842 5.80841L18.3907 7.84042C15.8383 7.57019 13.2515 7.42203 10.6862 7.39975C10.6853 7.39975 10.6845 7.39975 10.6836 7.39975C10.5229 7.39975 10.392 7.5293 10.3906 7.69028C10.3893 7.85217 10.5193 7.98447 10.6812 7.98584C13.5689 8.01071 16.4839 8.19626 19.3456 8.53729C19.384 8.54187 19.4141 8.58185 19.4141 8.62839V9.03565C19.4141 9.08722 19.3768 9.13162 19.3297 9.12628C13.2899 8.40179 6.99966 8.36685 0.670471 9.12582C0.622406 9.13101 0.58609 9.086 0.58609 9.03519V8.62793C0.58609 8.58139 0.61615 8.54141 0.654602 8.53684C3.51639 8.19595 6.43158 8.01056 9.319 7.98569C9.48074 7.98431 9.61075 7.85202 9.60938 7.69028C9.608 7.5293 9.47708 7.39975 9.31656 7.39975C9.31564 7.39975 9.31473 7.39975 9.31396 7.39975C6.74896 7.42188 4.16229 7.56989 1.6098 7.83997L3.15811 5.80841C3.83347 4.92233 4.84268 4.41406 5.92712 4.41406C6.08887 4.41406 6.22009 4.28299 6.22009 4.12109C6.22009 3.95935 6.08887 3.82812 5.92712 3.82812C4.65836 3.82812 3.47931 4.42047 2.69211 5.45334L0.804596 7.92969C0.731506 7.93808 0.658264 7.94632 0.585175 7.95502C0.251465 7.99469 0 8.284 0 8.62793V9.03519C0 9.41879 0.311584 9.72748 0.691376 9.71085L0.905304 12.7449C0.991364 13.9639 1.80817 15.0175 2.93777 15.3668L5.03586 16.0153C6.35406 16.4229 7.77298 15.7979 8.39966 14.5151C8.75198 14.5468 9.09576 14.3541 9.25125 14.0083L9.52744 13.3937C9.617 13.1946 9.79355 13.0757 9.99985 13.0757C10.2063 13.0757 10.383 13.1946 10.4724 13.3937L10.7487 14.0083C10.9061 14.3585 11.2543 14.547 11.6006 14.5157C12.2243 15.7918 13.6397 16.4249 14.9641 16.0153L17.0622 15.3668C18.192 15.0175 19.0086 13.9639 19.0945 12.7449L19.1107 12.5174C19.122 12.356 19.0004 12.2159 18.839 12.2046C18.6781 12.1925 18.5376 12.3148 18.5262 12.4762L18.5101 12.7037C18.441 13.6833 17.7896 14.5285 16.8892 14.807L14.7911 15.4555C13.7341 15.7822 12.6279 15.282 12.1289 14.2633C12.377 14.01 12.4561 13.6119 12.3029 13.2713C11.9966 12.5897 12.0158 12.6305 11.9792 12.558C11.5923 11.7911 10.8434 11.3191 9.99985 11.3191C9.12064 11.3191 8.34412 11.8317 7.97333 12.6567C7.73041 13.197 7.36084 13.7404 7.87109 14.2633C7.37213 15.2818 6.26572 15.7822 5.20889 15.4555L3.11081 14.8068C2.21039 14.5285 1.55899 13.6833 1.48987 12.7037L1.27426 9.646C6.98013 9.00192 12.8493 8.98254 18.7257 9.64645L18.6226 11.1089C18.6111 11.2703 18.7328 11.4104 18.8942 11.4218C19.0555 11.4325 19.1957 11.3116 19.207 11.1501L19.3085 9.71191C19.3179 9.71222 19.3274 9.71268 19.3369 9.71268C19.7028 9.71268 20 9.41025 20 9.03565V8.62839C20 8.28445 19.7484 7.99515 19.4148 7.95532ZM11.2833 13.7682L11.0069 13.1534C10.8229 12.7441 10.437 12.4898 10 12.4898C9.56299 12.4898 9.17709 12.7441 8.99307 13.1534L8.71674 13.7682C8.65158 13.9131 8.49411 13.9708 8.36395 13.9073C8.22388 13.8391 8.16422 13.6618 8.23151 13.5117L8.50784 12.897C8.78799 12.2739 9.36676 11.9052 9.99969 11.9052C10.6453 11.9052 11.2172 12.2853 11.4922 12.897L11.7685 13.5117C11.8359 13.6617 11.7763 13.839 11.6362 13.9073C11.636 13.9073 11.636 13.9073 11.6359 13.9075C11.5051 13.9708 11.3483 13.9127 11.2833 13.7682Z" fill="#E38A05"/>
</g>
<defs>
<clipPath id="clip0">
<rect width="20" height="20" fill="white"/>
</clipPath>
</defs>
</svg>
