<svg width="20" height="20" viewBox="0 0 20 20" fill="none" xmlns="http://www.w3.org/2000/svg">
<g clip-path="url(#clip0)">
<path d="M14.8076 0.736518C14.8247 0.547981 14.7612 0.359679 14.6335 0.219915C14.5058 0.0801904 14.3239 0 14.1346 0H5.86543C5.67611 0 5.49425 0.0801904 5.36654 0.219954C5.23887 0.359718 5.17541 0.54802 5.19241 0.736518L6.56087 15.8857C6.57976 16.095 6.6744 16.2788 6.81613 16.4121V18.9264C6.81613 19.5184 7.29778 20 7.88975 20H12.1103C12.7023 20 13.184 19.5184 13.184 18.9264V16.4121C13.3257 16.2788 13.4203 16.095 13.4392 15.8857L14.7269 1.63079C14.7269 1.63063 14.7269 1.63047 14.7269 1.63032L14.8076 0.736518ZM5.80142 0.617293C5.81104 0.606729 5.83217 0.589058 5.86543 0.589058H14.1346C14.1679 0.589058 14.189 0.606729 14.1986 0.617293C14.2083 0.627818 14.224 0.650438 14.2209 0.683543L14.1647 1.30598H5.83531L5.77907 0.683503C5.77609 0.650438 5.7918 0.627818 5.80142 0.617293ZM12.8525 15.8327C12.8416 15.9543 12.7412 16.046 12.6191 16.046H11.4711C11.3084 16.046 11.1765 16.1778 11.1765 16.3405C11.1765 16.5032 11.3084 16.635 11.4711 16.635H12.5949V17.7284H11.3434V17.7009C11.3434 17.3988 11.0975 17.1529 10.7953 17.1529H9.2048C8.90261 17.1529 8.65674 17.3988 8.65674 17.7009V17.7284H7.40523V16.635H10.2517C10.4144 16.635 10.5462 16.5032 10.5462 16.3405C10.5462 16.1778 10.4144 16.046 10.2517 16.046H7.381C7.2589 16.046 7.15853 15.9543 7.14757 15.8327L6.61766 9.96623H7.88107C8.37313 10.5972 9.13973 11.0042 10.0001 11.0042C10.8509 11.0042 11.6254 10.6059 12.1225 9.96623H13.3825L12.8525 15.8327ZM9.24576 17.742H10.7543V18.3039H9.24576V17.742ZM6.37296 7.25782H7.53156C7.39136 7.58314 7.31333 7.94132 7.31333 8.31749C7.31333 8.69363 7.39136 9.05181 7.53152 9.37713H6.56437L6.37296 7.25782ZM12.4693 9.37717C12.5232 9.25111 12.5685 9.11991 12.6032 8.98376C12.6434 8.82617 12.5483 8.66575 12.3907 8.62553C12.233 8.5854 12.0727 8.68047 12.0325 8.83806C11.972 9.07494 11.8724 9.29348 11.7419 9.48779C11.7338 9.49789 11.7265 9.50861 11.7198 9.51972C11.3361 10.0686 10.7013 10.4151 10 10.4151C8.84343 10.4151 7.90243 9.47417 7.90243 8.31753C7.90243 7.1609 8.84343 6.21994 10 6.21994C10.9454 6.21994 11.7779 6.85671 12.0245 7.76849C12.067 7.92554 12.2289 8.01829 12.3857 7.97592C12.5428 7.93343 12.6356 7.77171 12.5932 7.61471C12.5599 7.49156 12.5177 7.37265 12.4685 7.25786H13.6271L13.4356 9.37717H12.4693ZM13.6803 6.66876H12.1202C11.6219 6.02979 10.8465 5.63084 10 5.63084C9.13973 5.63084 8.37313 6.0378 7.88107 6.66876H6.31979L5.88852 1.895H14.1115L13.6803 6.66876ZM12.1103 19.4109H7.88971C7.62251 19.4109 7.40515 19.1936 7.40515 18.9264V18.3175H8.65666V18.345C8.65666 18.6472 8.90253 18.893 9.20472 18.893H10.7953C11.0974 18.893 11.3433 18.6472 11.3433 18.345V18.3175H12.5948V18.9264C12.5949 19.1935 12.3775 19.4109 12.1103 19.4109Z" fill="#E38A05"/>
<path d="M7.56705 5.70365C7.66781 5.83139 7.85294 5.85327 7.98068 5.75258C8.56102 5.295 9.25929 5.05313 10 5.05313C10.7407 5.05313 11.439 5.295 12.0193 5.75258C12.0734 5.79515 12.1377 5.81584 12.2015 5.81584C12.2886 5.81584 12.3749 5.77736 12.433 5.70365C12.5337 5.57594 12.5118 5.39074 12.3841 5.29001C11.6988 4.74969 10.8744 4.46411 10.0001 4.46411C9.12565 4.46411 8.30129 4.74969 7.61602 5.29001C7.48823 5.3907 7.46632 5.5759 7.56705 5.70365Z" fill="#E38A05"/>
<path d="M12.0193 10.8825C11.439 11.34 10.7407 11.5819 10 11.5819C9.25932 11.5819 8.56101 11.34 7.98067 10.8825C7.85292 10.7818 7.66776 10.8036 7.56703 10.9314C7.46634 11.0591 7.48822 11.2443 7.61596 11.345C8.30127 11.8854 9.12564 12.1709 10 12.1709C10.8744 12.1709 11.6987 11.8854 12.384 11.345C12.5118 11.2443 12.5337 11.0591 12.433 10.9314C12.3322 10.8036 12.147 10.7818 12.0193 10.8825Z" fill="#E38A05"/>
</g>
<defs>
<clipPath id="clip0">
<rect width="20" height="20" fill="white"/>
</clipPath>
</defs>
</svg>
