<svg width="20" height="20" viewBox="0 0 20 20" fill="none" xmlns="http://www.w3.org/2000/svg">
<path d="M19.2013 6.04292C19.0256 5.99394 18.8479 5.99132 18.6808 6.02722L18.9571 5.03548C19.174 4.25671 18.4575 3.4972 17.6646 3.67811C17.7472 3.01211 17.1858 2.41632 16.5173 2.45597C15.9147 2.49175 15.6151 2.945 15.4679 3.4733C14.8814 2.92215 13.885 3.20372 13.6696 3.97702L12.0038 9.96184C11.9931 10.0006 11.9375 10.0018 11.9253 9.96325L11.332 8.09219C11.1948 7.66171 10.8138 7.37538 10.3899 7.33662L10.4824 7.1356C10.732 6.5879 10.4895 5.93925 9.94184 5.68956C9.39894 5.44213 8.74248 5.68905 8.49567 6.23055L7.68468 8.01754C7.66792 8.05434 7.613 8.04688 7.60686 8.00683L6.66333 1.86654C6.54129 1.0734 5.58545 0.675187 4.93747 1.15297C4.85454 0.614131 4.61727 0.128261 4.02389 0.0179071C3.36333 -0.104986 2.7284 0.421002 2.73183 1.09473C1.96627 0.821675 1.16461 1.4911 1.28754 2.28983L1.44403 3.30661C0.681515 3.04547 -0.109792 3.71072 0.0125937 4.50609L0.932653 10.4845C1.06883 11.3695 1.35602 12.2151 1.78654 12.9991L1.6304 16.7669C1.61294 17.1886 1.99818 17.5356 2.41741 17.4709L9.03111 16.4531C9.45831 16.3873 9.72359 15.9246 9.56113 15.5218L8.18906 12.1192L9.45194 9.37476L10.9374 13.976L9.17112 17.1916C8.96217 17.572 9.17026 18.0632 9.58683 18.1792L16.0329 19.975C16.4407 20.0886 16.8652 19.7915 16.898 19.3695L17.1902 15.6097C17.7108 14.8824 18.0963 14.0769 18.3366 13.2144L18.6334 12.149C18.7344 11.7866 18.1701 11.6289 18.0689 11.9918L17.7721 13.0571C17.5433 13.8785 17.1719 14.6438 16.6681 15.3317C16.6359 15.3757 16.6166 15.4278 16.6124 15.4821L16.4321 17.8011L10.4242 16.1274L11.5118 14.1474C11.5506 14.0767 11.5586 13.9931 11.5338 13.9163L9.81015 8.57743C9.61386 7.96179 10.5754 7.64843 10.7735 8.26981L11.3666 10.1404C11.5508 10.7212 12.4049 10.7058 12.5682 10.1191L14.2339 4.13429C14.4063 3.5158 15.3863 3.76588 15.2081 4.40566L13.7761 9.54617C13.6751 9.90856 14.2394 10.0663 14.3405 9.7034L15.7726 4.56293V4.56289L16.094 3.40896C16.2663 2.79043 17.2465 3.04059 17.0682 3.68033L15.3147 9.97477C15.2098 10.3514 15.7796 10.4892 15.8791 10.132L17.4183 4.60688C17.5933 3.97885 18.5675 4.25019 18.3925 4.87825L17.8568 6.80111C17.8568 6.80126 17.8567 6.80142 17.8567 6.80157L16.8533 10.4034C16.7524 10.7657 17.3163 10.9247 17.4177 10.5606L18.4213 6.95826C18.5969 6.33082 19.5702 6.60251 19.3953 7.23022L18.5585 10.234C18.4575 10.5964 19.0218 10.7542 19.1229 10.3912L19.9598 7.38745C20.1215 6.80755 19.7812 6.20441 19.2013 6.04292ZM16.3859 18.3964L16.3138 19.324C16.3091 19.3849 16.249 19.427 16.1903 19.4105L9.74414 17.6148C9.6839 17.598 9.65468 17.5285 9.68476 17.4737L10.1345 16.6549L16.3859 18.3964ZM7.59839 12.2211L8.44325 14.3163L7.49444 14.4623C7.12342 14.5194 7.21115 15.0989 7.58354 15.0414L8.66833 14.8744L9.01772 15.7408C9.04111 15.7988 9.00377 15.8644 8.94201 15.8739L2.32827 16.8918C2.26796 16.9011 2.21331 16.8521 2.21585 16.7912L2.25436 15.8616L5.78663 15.318C6.15843 15.2608 6.0698 14.6814 5.69752 14.7389L2.27909 15.265L2.37538 12.941C2.37765 12.8865 2.36468 12.8325 2.33792 12.785C1.91943 12.0422 1.64146 11.2382 1.51177 10.3955L0.591708 4.41695C0.492487 3.77217 1.49173 3.61818 1.59118 4.26292L2.15995 7.95859C2.21452 8.31364 2.80078 8.27032 2.73906 7.86949L2.17034 4.17402C2.1703 4.17386 2.1703 4.17374 2.17026 4.17359L1.86666 2.20069C1.76752 1.5563 2.76703 1.40251 2.86617 2.04686L3.73857 7.71566C3.79315 8.07078 4.37941 8.02723 4.31769 7.62655L3.32384 1.16844C3.22458 0.523543 4.22409 0.369751 4.32335 1.01461L5.3172 7.47272C5.37443 7.84464 5.95366 7.75593 5.89632 7.38362L5.0847 2.10948C4.98544 1.46462 5.98503 1.31075 6.08421 1.95561L7.02767 8.09586C7.12025 8.69814 7.96613 8.81521 8.21824 8.25973L9.02904 6.47317C9.29905 5.88062 10.2208 6.29684 9.94965 6.89161C9.86074 7.08482 9.70191 7.31303 9.67109 7.52608C9.35366 7.74597 9.17319 8.12262 9.20436 8.5113L7.60401 11.9891C7.57022 12.0624 7.56823 12.1463 7.59839 12.2211Z" fill="#E38A05"/>
</svg>
