<svg width="20" height="20" viewBox="0 0 20 20" fill="none" xmlns="http://www.w3.org/2000/svg">
<g clip-path="url(#clip0)">
<path d="M20 5.86823L17.3038 3.17202L14.4198 6.05598L13.4585 5.09466L10.7623 7.79087L11.7236 8.75219L10.5745 9.90127L10.3868 9.71352C9.97308 9.30045 9.25334 9.30013 8.83965 9.71352L6.91701 11.6362L7.87833 12.5975L3.934 16.5415C3.88112 16.2982 3.84529 16.0499 3.84529 15.7952C3.84529 12.9919 4.93663 10.3569 6.91888 8.3748L8.37025 6.92343C8.62169 7.0705 8.90881 7.14968 9.20343 7.14968C9.77093 7.14968 10.2916 6.86381 10.5963 6.38519L12.5853 3.25979L9.33768 0.0125122L6.21213 2.0015C5.73335 2.30629 5.44749 2.82701 5.44749 3.39451C5.44749 3.68898 5.52697 3.97609 5.67374 4.22753L4.1676 5.73366C1.48016 8.42127 0 11.9945 0 15.7952C0 18.096 1.87164 19.9676 4.17245 19.9676C5.28727 19.9676 6.3348 19.5337 7.12276 18.7455L10.5745 15.2937L11.5359 16.255L13.4585 14.3324C13.6652 14.1257 13.7789 13.8511 13.7789 13.5585C13.7789 13.2659 13.6652 12.9913 13.4585 12.7849L13.2707 12.5975L14.4198 11.4484L15.3811 12.4097L18.0773 9.71352L17.116 8.75219L20 5.86823ZM17.3038 4.07826L19.0937 5.86823L16.6629 8.29907L14.8729 6.50911L17.3038 4.07826ZM7.04969 7.33775L5.25973 5.54778L6.81155 3.99596C7.05063 3.75688 7.36857 3.62514 7.70653 3.62514C8.40452 3.62514 8.97233 4.19295 8.97233 4.89094C8.97233 5.22891 8.84059 5.54685 8.60151 5.78592L7.04969 7.33775ZM6.08837 3.39451C6.08837 3.04747 6.2633 2.72859 6.5562 2.54209L9.24787 0.829261L11.7682 3.3496L10.0551 6.04128C9.86919 6.33418 9.55078 6.50911 9.20343 6.50911C9.08123 6.50911 8.96138 6.48673 8.84904 6.44464L9.05463 6.23905C9.41482 5.87886 9.61321 5.40008 9.61321 4.89094C9.61321 3.8395 8.75798 2.98426 7.70653 2.98426C7.19739 2.98426 6.71861 3.18266 6.35843 3.54284L6.15283 3.74859C6.11043 3.63609 6.08837 3.51624 6.08837 3.39451ZM4.17245 19.3267C2.22478 19.3267 0.640881 17.7425 0.640881 15.7952C0.640881 12.1655 2.05439 8.75313 4.62073 6.18679L4.80661 6.00091L6.59657 7.79087L6.46592 7.92168C4.3624 10.0247 3.2044 12.8209 3.2044 15.7952C3.2044 17.1753 3.89269 18.4574 5.00563 19.2283C4.73573 19.2934 4.45675 19.3267 4.17245 19.3267ZM6.66932 18.2924C6.40302 18.559 6.10182 18.7772 5.77559 18.9439C5.04443 18.5712 4.47756 17.9585 4.15227 17.2298L9.29277 12.0893L11.0827 13.8792L10.348 14.614L6.66932 18.2924ZM13.0054 13.8792L11.5359 15.3488L11.0277 14.8406L11.989 13.8792L9.29277 11.183L8.33145 12.1444L7.82325 11.6362L9.29277 10.167C9.46426 9.99547 9.76217 9.99547 9.93365 10.167L13.0054 13.2384C13.0913 13.324 13.1381 13.4377 13.1381 13.5588C13.1381 13.6799 13.0913 13.7937 13.0054 13.8792ZM12.8176 12.1444L11.0277 10.3544L12.1767 9.20532L13.9667 10.9953L12.8176 12.1444ZM15.3811 11.5035L11.6685 7.79087L13.4585 6.00091L17.1711 9.71352L15.3811 11.5035Z" fill="#E38A05"/>
<path d="M5.2207 17.1774L5.86159 16.5366L6.31472 16.9898L5.67383 17.6305L5.2207 17.1774Z" fill="#E38A05"/>
<path d="M6.50256 15.8958L9.06609 13.3323L9.51921 13.7854L6.95569 16.3489L6.50256 15.8958Z" fill="#E38A05"/>
<path d="M4.46027 8.30638L3.95269 7.91553C3.78997 8.12629 3.63069 8.34784 3.47876 8.57269L4.01012 8.93131C4.15453 8.71757 4.30615 8.50697 4.46027 8.30638Z" fill="#E38A05"/>
<path d="M3.06341 9.23035C1.8979 11.2052 1.28174 13.4756 1.28174 15.7951H1.92262C1.92262 13.5899 2.5078 11.4324 3.61526 9.55579L3.06341 9.23035Z" fill="#E38A05"/>
<path d="M16.9834 7.14995C17.5134 7.14995 17.9447 6.71857 17.9447 6.18862C17.9447 5.65867 17.5134 5.22729 16.9834 5.22729C16.4535 5.22729 16.0221 5.65867 16.0221 6.18862C16.0221 6.71857 16.4535 7.14995 16.9834 7.14995ZM16.9834 5.86818C17.1602 5.86818 17.3039 6.01213 17.3039 6.18862C17.3039 6.36527 17.1602 6.50906 16.9834 6.50906C16.8066 6.50906 16.663 6.36527 16.663 6.18862C16.663 6.01213 16.8066 5.86818 16.9834 5.86818Z" fill="#E38A05"/>
<path d="M12.9114 7.69702L13.3645 7.2439L15.928 9.80742L15.4749 10.2607L12.9114 7.69702Z" fill="#E38A05"/>
</g>
<defs>
<clipPath id="clip0">
<rect width="20" height="20" fill="white"/>
</clipPath>
</defs>
</svg>
