<svg width="20" height="20" viewBox="0 0 20 20" fill="none" xmlns="http://www.w3.org/2000/svg">
<g clip-path="url(#clip0)">
<path d="M16.6655 8.67662C16.6564 8.55635 16.6441 8.44219 16.6273 8.33077C16.5894 8.05529 16.5166 7.78576 16.4107 7.52859C16.364 7.41626 16.3112 7.30637 16.2529 7.19953C16.4402 7.03393 16.6082 6.84789 16.7543 6.6449C16.8742 6.84041 16.9799 7.04431 17.0705 7.25493C17.198 7.56445 17.2859 7.88878 17.3321 8.22028C17.3565 8.3787 17.373 8.53895 17.3842 8.69982C17.1886 8.6841 16.9896 8.67341 16.785 8.67341C16.7445 8.67341 16.7056 8.67586 16.6655 8.67662Z" fill="#E38A05"/>
<path d="M19.6427 11.4414V11.174C19.6427 10.9767 19.4829 10.8167 19.2856 10.8167C19.0882 10.8167 18.9283 10.9767 18.9283 11.174V16.8896C18.9283 18.0733 17.9687 19.0329 16.785 19.0329C15.6013 19.0329 14.6416 18.0733 14.6416 16.8896V11.174C14.6416 10.9767 14.4818 10.8167 14.2844 10.8167C14.0871 10.8167 13.9271 10.9767 13.9271 11.174V11.4414C13.7232 11.2947 13.5929 11.0669 13.57 10.8167C13.57 10.1977 14.6794 9.51575 16.3213 9.40509L16.3239 9.40555H16.3296C16.3323 9.40555 16.3348 9.40403 16.3375 9.40387C16.4831 9.39441 16.6313 9.38785 16.785 9.38785C18.6797 9.38785 20 10.1409 20 10.8167C19.9771 11.0669 19.8468 11.2947 19.6427 11.4414ZM18.2139 16.1751C18.0173 16.1751 17.8576 16.334 17.8567 16.5306C17.8724 16.8195 17.7647 17.1016 17.5602 17.3064C17.3558 17.5111 17.0739 17.6194 16.785 17.604C16.5877 17.604 16.4277 17.764 16.4277 17.9613C16.4277 18.1585 16.5877 18.3184 16.785 18.3184C17.2641 18.3366 17.729 18.1544 18.0679 17.8154C18.4069 17.4763 18.5893 17.0114 18.5711 16.5323C18.5711 16.4377 18.5334 16.3467 18.4664 16.2797C18.3994 16.2127 18.3086 16.1751 18.2139 16.1751Z" fill="#E38A05"/>
<path d="M6.53849 2.96484L6.53712 2.9682C6.53666 2.97034 6.53742 2.97247 6.53712 2.97461C6.44142 3.49658 6.39716 4.02679 6.40495 4.55746L6.40464 4.55945L6.4051 4.56082C6.4109 5.0312 6.446 5.50067 6.5101 5.96663C6.53468 6.13955 6.43074 6.30484 6.26423 6.35765C6.14717 6.39459 6.02232 6.43579 5.89763 6.48051C5.7911 6.51958 5.67251 6.50646 5.57697 6.4451C5.51043 6.4013 5.46052 6.33644 5.43534 6.26089C5.43457 6.25829 5.43534 6.2557 5.43427 6.25326L5.4332 6.25127C5.42481 6.22701 5.41916 6.20182 5.41641 6.17634C5.31812 4.97458 5.25051 2.76429 5.90251 1.46089C5.96402 1.33559 6.091 1.25562 6.23065 1.25409C6.25355 1.25409 6.27629 1.25638 6.29872 1.2608L6.61953 1.32491C6.72393 1.3449 6.81352 1.41144 6.86266 1.50576C6.91425 1.60375 6.91867 1.71989 6.87472 1.82154C6.7224 2.18967 6.60977 2.57291 6.53849 2.96484Z" fill="#E38A05"/>
<path d="M12.4638 3.61791C13.4394 3.95704 14.3643 4.42712 15.2135 5.01502C15.1293 5.24228 14.9913 5.44557 14.8113 5.60781C14.0122 5.05012 13.1397 4.60569 12.2186 4.28747C11.2195 3.91766 10.258 3.59318 9.36148 3.32289C9.35797 3.32167 9.29723 3.30244 9.29341 3.30152C8.60493 3.09426 7.94453 2.92332 7.31084 2.77772C7.36731 2.54664 7.44133 2.32015 7.5323 2.10037L7.53428 2.09381C8.03778 2.2127 8.5477 2.34274 9.05929 2.49002C9.5457 2.62769 10.0681 2.7887 10.6577 2.98269C11.198 3.1608 11.7888 3.36852 12.4638 3.61791Z" fill="#E38A05"/>
<path d="M16.4232 5.82607C16.2279 6.22472 15.9379 6.56949 15.5785 6.83017C15.4599 6.92053 15.3336 7.0005 15.2013 7.06918C13.9411 7.73645 12.1614 7.50385 10.8903 7.19036C10.8268 7.17464 10.7672 7.1574 10.7047 7.14122C10.6916 6.87443 10.6382 6.61116 10.5465 6.36025C11.3972 6.62276 12.28 6.7679 13.1699 6.79141C13.7572 6.81186 14.3405 6.6893 14.87 6.43457C14.9203 6.40893 14.9687 6.37978 15.0148 6.34727C15.5046 6.03516 15.8523 5.54325 15.9829 4.97748V4.97702L15.9834 4.97489C16.0171 4.85523 16.0443 4.73405 16.0649 4.61149C16.368 2.80718 15.3677 2.11473 14.4751 1.85069C13.2218 1.53003 11.8946 1.67487 10.7398 2.25835C10.4285 2.15685 10.135 2.06436 9.85554 1.97981C11.0127 1.0949 13.1272 0.706629 14.6754 1.16755C16.3309 1.65442 17.0749 2.91875 16.772 4.72794C16.7115 5.10935 16.5939 5.47961 16.4232 5.82607Z" fill="#E38A05"/>
<path d="M2.36064 2.44652C1.66743 2.646 1.09937 3.14462 0.811825 3.80609C0.574801 4.47458 0.781606 5.21968 1.32891 5.67038C1.62653 5.90404 1.99847 6.02263 2.37636 6.00432C2.78371 5.9947 3.18679 5.91915 3.57003 5.78027L3.95159 5.63985C4.15168 5.56537 4.39496 5.4767 4.65487 5.38726C4.66525 5.64489 4.67914 5.89473 4.6973 6.13176C4.53216 6.18945 4.36962 6.245 4.19639 6.30956L3.81117 6.45242C2.61415 6.88129 1.53877 6.79384 0.864938 6.2099C0.0876288 5.56797 -0.201287 4.50617 0.143947 3.55884C0.505511 2.69255 1.2378 2.0352 2.13797 1.76872C3.09171 1.50682 4.09093 1.45523 5.06665 1.61763C4.98484 1.84442 4.91723 2.07595 4.86412 2.31115C4.02942 2.17821 3.17611 2.22446 2.36064 2.44652Z" fill="#E38A05"/>
<path d="M9.54113 13.9168C9.41781 13.8723 9.28731 13.8505 9.15621 13.8525C8.97245 13.8556 8.79007 13.8843 8.6144 13.9378C8.1112 14.0845 7.6544 14.3583 7.2878 14.7328L4.35514 17.6656C3.81363 18.2072 3.02442 18.4185 2.28465 18.2204C1.54504 18.0222 0.967208 17.4443 0.769103 16.7047C0.570846 15.965 0.782381 15.1758 1.32389 14.6342L4.25655 11.7016C4.6323 11.3336 4.90672 10.8748 5.05309 10.3697C5.15199 10.0705 5.16297 9.74909 5.08453 9.44384C5.6764 9.22772 6.9421 9.64362 8.14417 10.8454C9.35493 12.0563 9.76762 13.3316 9.54113 13.9168ZM3.59721 16.9077C3.45878 16.769 3.23443 16.7679 3.09447 16.9053C3.03266 16.9817 2.93956 17.0263 2.84127 17.0268C2.74283 17.0272 2.64942 16.9836 2.58669 16.9077C2.44674 16.7717 2.22345 16.7734 2.08548 16.9115C1.94735 17.0495 1.94568 17.2726 2.08166 17.4127C2.27244 17.6188 2.53923 17.7378 2.8199 17.7421C3.11172 17.7362 3.38995 17.6182 3.59721 17.4127C3.73671 17.2732 3.73671 17.0472 3.59721 16.9077ZM6.37587 14.1291C6.30887 14.0621 6.21806 14.0244 6.12328 14.0244C6.0285 14.0244 5.93769 14.0621 5.87069 14.1291L4.1024 15.8974C4.0096 15.9871 3.97236 16.1199 4.00502 16.2447C4.03768 16.3697 4.13521 16.4672 4.26021 16.4999C4.38505 16.5326 4.51784 16.4953 4.60758 16.4025L6.37587 14.6342C6.44287 14.5672 6.48057 14.4764 6.48057 14.3817C6.48057 14.2869 6.44287 14.1961 6.37587 14.1291Z" fill="#E38A05"/>
<path d="M9.49208 5.95444C9.84296 6.3505 10.0223 6.86942 9.991 7.39764L9.99009 7.44893C9.90905 8.45273 9.18378 9.45882 8.50232 10.1998C8.32314 10.0301 8.13984 9.87243 7.95364 9.7285C8.57405 9.05971 9.21309 8.19312 9.27505 7.40833C9.2955 7.18702 9.25872 6.96435 9.16821 6.76151L9.1676 6.75846L9.16608 6.75556L9.16425 6.75113C9.09404 6.59531 8.99636 6.45337 8.87594 6.33203C8.66807 6.11531 8.42112 5.93994 8.14793 5.8151C7.84635 5.67957 7.5205 5.60692 7.18991 5.60127C7.16198 5.35005 7.14291 5.11181 7.13299 4.88638C7.98218 4.87707 8.79734 5.21971 9.38479 5.8328C9.42035 5.87141 9.45911 5.91277 9.49208 5.95444Z" fill="#E38A05"/>
</g>
<defs>
<clipPath id="clip0">
<rect width="20" height="20" fill="white" transform="matrix(-1 0 0 1 20 0)"/>
</clipPath>
</defs>
</svg>
