<svg width="20" height="20" viewBox="0 0 20 20" fill="none" xmlns="http://www.w3.org/2000/svg">
<path d="M19.9023 13.5975L18.569 12.2642C18.518 12.2132 18.4517 12.1802 18.3807 12.1699L16.115 11.8462L10.568 8.46988L8.651 2.39954C8.62433 2.31454 8.56433 2.24354 8.48467 2.20321C8.40567 2.16254 8.313 2.15588 8.22767 2.18388L7.13967 2.54654C6.458 2.77354 6 3.40921 6 4.12754V4.16654H4.33333C4.28933 4.16654 4.24567 4.17521 4.205 4.19221L2 5.11088V4.83321C2 4.28188 1.55133 3.83321 1 3.83321C0.448667 3.83321 0 4.28188 0 4.83321V6.16654H0.00466667C0.00466667 6.19354 0.003 6.22021 0.01 6.24754C0.651 8.81154 0.651 11.5219 0.01 14.0859C0.00333333 14.1122 0 14.1392 0 14.1665V16.1665C0 17.0855 0.747667 17.8332 1.66667 17.8332H6C6.10767 17.8332 6.20867 17.7812 6.271 17.6935L6.975 16.7079L8.772 17.1225L9.035 17.6489C9.09167 17.7619 9.207 17.8332 9.33333 17.8332H13.0613C15.486 17.8332 17.834 17.1222 19.8517 15.7772C19.9443 15.7152 20 15.6112 20 15.4999V13.8332C20 13.7449 19.965 13.6599 19.9023 13.5975ZM8.53033 4.23021L9.703 7.94321L8.56967 7.25354L8 6.39888V4.40654L8.53033 4.23021ZM6.66667 4.12754C6.66667 3.69654 6.94133 3.31521 7.35067 3.17888L8.11767 2.92321L8.32967 3.59421L7.56133 3.85021C7.425 3.89588 7.33333 4.02288 7.33333 4.16654V5.39888L6.66667 4.39888V4.12754ZM6 6.83321V4.83321H6.155L8.056 7.68488C8.083 7.72554 8.11867 7.75954 8.16 7.78454L8.83367 8.19454L7.764 9.26421L8.23533 9.73554L9.41967 8.55121L10.0077 8.90921L10.0153 8.93354L10.0367 8.92688L10.4913 9.20354L9.43067 10.2642L9.902 10.7355L11.0773 9.56021L12.149 10.2125L11.0973 11.2642L11.5687 11.7355L12.735 10.5692L13.8067 11.2215L12.764 12.2642L13.2353 12.7355L14.3927 11.5782L15.4643 12.2305L14.4307 13.2642L14.902 13.7355L16.1177 12.5199L18.176 12.8139L19.0493 13.6872L14.6487 15.1542L8.739 13.8409C8.69733 13.8319 8.654 13.8305 8.612 13.8375L6.98033 14.1095C6.84867 11.9655 5.64933 10.1102 3.90467 9.06654L5.90267 7.06854C5.965 7.00654 6 6.92154 6 6.83321ZM1.09933 8.85521C3.87867 9.06654 6.1 11.2879 6.31133 14.0675L4.08067 13.5099C4.01333 13.4929 3.941 13.4982 3.87633 13.5239L2.323 14.1452L0.790667 13.6342C1.12067 12.0642 1.22333 10.4525 1.09933 8.85521ZM4.4 4.83321H5.33333V6.69521L3.28733 8.74121C2.59467 8.42454 1.83633 8.23188 1.03767 8.18554C0.965667 7.57388 0.863333 6.96588 0.724 6.36521L4.4 4.83321ZM0.666667 4.83321C0.666667 4.64954 0.816 4.49988 1 4.49988C1.184 4.49988 1.33333 4.64954 1.33333 4.83321V5.38888L0.666667 5.66654V4.83321ZM19.3333 15.3199C19.1153 15.4605 18.8923 15.5919 18.6667 15.7169V15.4999H18V16.0565C17.7807 16.1602 17.558 16.2549 17.3333 16.3442V16.1665H16.6667V16.5849C16.4463 16.6572 16.2243 16.7229 16 16.7815V16.4999H15.3333V16.9372C15.1123 16.9812 14.8907 17.0225 14.6667 17.0539V16.8332H14V17.1255C13.7787 17.1435 13.5563 17.1515 13.3333 17.1569V16.8332H12.6667V17.1665H12V16.8332H11.3333V17.1665H10.6667V16.8332H10V17.1665H9.53933L9.298 16.6842C9.25333 16.5952 9.17167 16.5309 9.07467 16.5085L6.908 16.0085C6.77733 15.9789 6.64 16.0302 6.562 16.1399L5.82833 17.1665H5.66667V16.4999H5V17.1665H4.33333V16.4999H3.66667V17.1665H3V16.4999H2.33333V17.1665H1.66667V16.4999H1V16.9065C0.797 16.7232 0.666667 16.4609 0.666667 16.1665V14.2959L2.228 14.8162C2.30267 14.8412 2.384 14.8385 2.45733 14.8095L4.024 14.1829L6.58633 14.8235C6.63 14.8345 6.67667 14.8365 6.72167 14.8289L8.658 14.5062L14.595 15.8255C14.618 15.8305 14.6427 15.8332 14.6667 15.8332C14.7023 15.8332 14.738 15.8275 14.772 15.8162L19.3333 14.2959V15.3199Z" fill="#E38A05"/>
</svg>
