<svg width="20" height="20" viewBox="0 0 20 20" fill="none" xmlns="http://www.w3.org/2000/svg">
<path d="M17.6562 0H2.34375C1.05141 0 0 1.05141 0 2.34375V17.6562C0 18.9486 1.05141 20 2.34375 20H17.6562C18.9486 20 20 18.9486 20 17.6562V2.34375C20 1.05141 18.9486 0 17.6562 0ZM18.4375 17.6562C18.4375 18.087 18.087 18.4375 17.6562 18.4375H2.34375C1.91297 18.4375 1.5625 18.087 1.5625 17.6562V2.34375C1.5625 1.91297 1.91297 1.5625 2.34375 1.5625H17.6562C18.087 1.5625 18.4375 1.91297 18.4375 2.34375V17.6562Z" fill="#E38A05"/>
<path d="M11.1719 3.90625H5.70312V16.0938H7.26562V11.7188H11.1719C13.3258 11.7188 15.0781 9.96641 15.0781 7.8125C15.0781 5.65859 13.3258 3.90625 11.1719 3.90625ZM11.1719 10.1562H7.26562V5.46875H11.1719C12.4642 5.46875 13.5156 6.52016 13.5156 7.8125C13.5156 9.10484 12.4642 10.1562 11.1719 10.1562Z" fill="#E38A05"/>
</svg>
