<svg width="20" height="20" viewBox="0 0 20 20" fill="none" xmlns="http://www.w3.org/2000/svg">
<g clip-path="url(#clip0)">
<path d="M18.0307 2.88453C16.792 1.67632 15.0893 1.01546 13.1046 0.971206C10.0424 0.220855 9.9682 0.223472 6.89566 0.971206C4.91082 1.01539 3.20805 1.67625 1.96934 2.88453C0.680977 4.14121 0 5.89812 0 7.96539C0 8.07753 0.0475 8.17835 0.123203 8.2496C0.127891 8.25433 0.133008 8.25914 0.138906 8.2641L3.675 11.2439V12.635C3.675 12.8507 3.84988 13.0256 4.06563 13.0256C4.28137 13.0256 4.45625 12.8507 4.45625 12.635V6.73617C4.45625 6.52042 4.28137 6.34554 4.06563 6.34554C3.84988 6.34554 3.675 6.52042 3.675 6.73617V7.75554L1.15891 5.603C1.77535 3.8316 3.1184 2.57164 4.97523 2.03644C5.1307 2.93585 5.59441 3.80539 6.33426 4.57531C7.23184 5.50769 8.71324 6.44851 9.99945 6.44851C11.2874 6.44851 12.7684 5.50761 13.6647 4.57527C14.4051 3.80593 14.8693 2.93636 15.0248 2.03644C16.8816 2.5716 18.2248 3.83152 18.8412 5.60296L16.325 7.75558V6.73621C16.325 6.52046 16.1501 6.34558 15.9344 6.34558C15.7187 6.34558 15.5438 6.52046 15.5438 6.73621V17.7214C15.5438 18.3212 15.0568 18.8093 14.4584 18.8093H5.5416C4.94313 18.8093 4.45625 18.3213 4.45625 17.7214V16.1464C4.45625 15.9306 4.28137 15.7557 4.06563 15.7557C3.84988 15.7557 3.675 15.9306 3.675 16.1464V17.7214C3.675 18.752 4.51238 19.5906 5.5416 19.5906H14.4584C15.4877 19.5906 16.325 18.7521 16.325 17.7214V11.2439L19.8611 8.2641C19.8617 8.26359 19.8621 8.26289 19.8627 8.26234C19.9466 8.1907 20 8.08433 20 7.96539C20 5.89812 19.319 4.14121 18.0307 2.88453ZM3.675 8.78371V10.2222L0.783242 7.78543C0.793359 7.31351 0.843555 6.86308 0.930938 6.43613L3.675 8.78371ZM12.6322 1.65988C12.4971 2.35429 11.926 2.92351 11.5678 3.22089C10.9065 3.76992 10.241 4.0257 9.99945 4.0257C9.75797 4.0257 9.0927 3.76992 8.43172 3.22093C8.07375 2.92363 7.50316 2.35457 7.36789 1.66035C9.90859 1.04367 10.1003 1.04132 12.6322 1.65988ZM13.1016 4.03367C12.3212 4.84543 11.0051 5.66722 9.99941 5.66722C8.9952 5.66722 7.67859 4.84535 6.89727 4.03375C6.4377 3.55546 5.8893 2.80832 5.73832 1.86312C6.01426 1.81597 6.29957 1.78347 6.59367 1.76589C6.72199 2.48464 7.18613 3.20199 7.93254 3.82195C8.63078 4.40191 9.48074 4.80695 9.99941 4.80695C10.5181 4.80695 11.3682 4.40191 12.0668 3.82199C12.8135 3.20199 13.2779 2.48464 13.4062 1.76589C13.7004 1.78347 13.9857 1.81597 14.2616 1.86312C14.1106 2.80871 13.5617 3.55558 13.1016 4.03367ZM16.325 10.2222V8.78371L19.0689 6.43625C19.1564 6.86316 19.2066 7.31351 19.2168 7.78543L16.325 10.2222Z" fill="#E38A05"/>
<path d="M14.6043 10.2154V8.71245C14.6043 8.24831 14.2269 7.87073 13.763 7.87073H11.8674C11.4035 7.87073 11.0261 8.24834 11.0261 8.71245V10.2154C11.0261 11.2027 11.8287 12.0059 12.8152 12.0059C13.8017 12.0059 14.6043 11.2027 14.6043 10.2154ZM11.8074 10.2154V8.71245C11.8074 8.67967 11.8349 8.65198 11.8674 8.65198H13.763C13.7956 8.65198 13.823 8.67967 13.823 8.71245V10.2154C13.823 10.7719 13.3709 11.2247 12.8152 11.2247C12.2594 11.2247 11.8074 10.7719 11.8074 10.2154Z" fill="#E38A05"/>
<path d="M4.06567 14.7818C4.28142 14.7818 4.4563 14.6064 4.4563 14.3906C4.4563 14.1749 4.28142 14 4.06567 14C3.84993 14 3.67505 14.1749 3.67505 14.3906V14.3917C3.67505 14.6075 3.84993 14.7818 4.06567 14.7818Z" fill="#E38A05"/>
</g>
<defs>
<clipPath id="clip0">
<rect width="20" height="20" fill="white"/>
</clipPath>
</defs>
</svg>
