<svg width="44" height="45" viewBox="0 0 44 45" fill="none" xmlns="http://www.w3.org/2000/svg">
<g clip-path="url(#clip0)">
<g filter="url(#filter0_f)">
<path d="M1.08252 43.9494L4.03103 32.9894C2.2181 29.7823 1.25182 26.1392 1.26179 22.4149C1.26179 10.7443 10.5857 1.2558 22.0415 1.2558C27.5999 1.2558 32.8197 3.458 36.7347 7.45634C40.6595 11.4547 42.8212 16.7724 42.8112 22.4251C42.8112 34.0955 33.4871 43.5842 22.0315 43.5842H22.0215C18.545 43.5842 15.1281 42.6912 12.0899 41.0064L1.08252 43.9494ZM12.6079 37.1704L13.2355 37.5561C15.8853 39.1595 18.9235 40.0017 22.0215 40.0118H22.0315C31.5448 40.0118 39.2946 32.1267 39.2946 22.4251C39.2946 17.7263 37.5016 13.3119 34.2443 9.98317C30.9869 6.65457 26.6436 4.82796 22.0315 4.82796C12.5083 4.82796 4.75824 12.7131 4.75824 22.4147C4.75824 25.7333 5.66471 28.9705 7.39807 31.7716L7.80644 32.4413L6.06328 38.9261L12.6079 37.1704Z" fill="black" fill-opacity="0.24"/>
</g>
<path d="M2.0249 42.8181L4.8385 32.3648C3.10356 29.2987 2.1909 25.8216 2.19214 22.2826C2.19214 11.1577 11.0856 2.10767 21.9956 2.10767C27.2983 2.10767 32.2665 4.21234 36.0048 8.0207C39.743 11.8292 41.7994 16.9006 41.7994 22.2925C41.7994 33.4172 32.9059 42.4672 21.9957 42.4672H21.9859C18.6705 42.4672 15.4141 41.6154 12.5218 40.0118L2.0249 42.8183V42.8181Z" fill="url(#paint0_linear)"/>
<path d="M1.30664 43.5497L4.21855 32.7257C2.42812 29.5587 1.4737 25.9606 1.48367 22.2825C1.48367 10.7569 10.6919 1.38608 22.0055 1.38608C27.4949 1.38608 32.6498 3.56079 36.5163 7.50958C40.3922 11.4584 42.5271 16.7101 42.5173 22.2925C42.5173 33.8181 33.3091 43.189 21.9954 43.189H21.9858C18.559 43.1876 15.1871 42.3124 12.1774 40.6432L1.30664 43.5499V43.5497ZM12.6889 36.8548L13.3087 37.2357C15.9256 38.8192 18.9261 39.6511 21.9858 39.6611H21.9956C31.3906 39.6611 39.0445 31.8738 39.0445 22.2925C39.0445 17.6523 37.2737 13.2925 34.0567 10.0052C30.8398 6.71796 26.5504 4.91394 21.9956 4.91394C12.5906 4.91394 4.93681 12.7012 4.93681 22.2825C4.93681 25.5598 5.83194 28.7569 7.54381 31.5229L7.9472 32.1845L6.22553 38.5886L12.6889 36.8548Z" fill="white"/>
<path d="M16.87 13.5331C16.4862 12.6611 16.0829 12.641 15.719 12.631C15.4239 12.621 15.0796 12.621 14.7352 12.621C14.3909 12.621 13.8399 12.7513 13.3677 13.2724C12.8954 13.7936 11.5771 15.0564 11.5771 17.6323C11.5771 20.1978 13.4169 22.6833 13.6726 23.034C13.9284 23.3849 17.2241 28.827 22.4283 30.9216C26.757 32.6656 27.6425 32.3147 28.577 32.2245C29.5214 32.1344 31.6071 30.9617 32.0399 29.739C32.4629 28.5163 32.4629 27.474 32.335 27.2535C32.2071 27.0329 31.8629 26.9028 31.3512 26.6421C30.8397 26.3815 28.3212 25.1187 27.8491 24.9384C27.3768 24.758 27.0325 24.6779 26.698 25.1989C26.3536 25.72 25.3699 26.8927 25.0747 27.2436C24.7796 27.5943 24.4747 27.6344 23.963 27.3738C23.4515 27.1133 21.7987 26.5619 19.8411 24.778C18.3162 23.3949 17.2832 21.6811 16.9879 21.16C16.6928 20.6389 16.9586 20.358 17.2143 20.0977C17.4405 19.8671 17.7258 19.4862 17.9817 19.1856C18.2375 18.8849 18.326 18.6645 18.4932 18.3136C18.6605 17.9629 18.5817 17.6622 18.4539 17.4017C18.326 17.141 17.3226 14.5653 16.87 13.5331Z" fill="white"/>
</g>
<defs>
<filter id="filter0_f" x="-4.91748" y="-4.7442" width="53.7287" height="54.6936" filterUnits="userSpaceOnUse" color-interpolation-filters="sRGB">
<feFlood flood-opacity="0" result="BackgroundImageFix"/>
<feBlend mode="normal" in="SourceGraphic" in2="BackgroundImageFix" result="shape"/>
<feGaussianBlur stdDeviation="3" result="effect1_foregroundBlur"/>
</filter>
<linearGradient id="paint0_linear" x1="21.9113" y1="42.8155" x2="21.9113" y2="2.10522" gradientUnits="userSpaceOnUse">
<stop stop-color="#20B038"/>
<stop offset="1" stop-color="#60D66A"/>
</linearGradient>
<clipPath id="clip0">
<rect width="44" height="45" fill="white"/>
</clipPath>
</defs>
</svg>
